  0
SECTION
  2
HEADER
  9
$ACADVER
  1
AC1024
  9
$ACADMAINTVER
 70
     6
  9
$DWGCODEPAGE
  3
ANSI_1252
  9
$INSBASE
 10
0.0
 20
0.0
 30
0.0
  9
$EXTMIN
 10
1.000000000000000E+20
 20
1.000000000000000E+20
 30
1.000000000000000E+20
  9
$EXTMAX
 10
-1.000000000000000E+20
 20
-1.000000000000000E+20
 30
-1.000000000000000E+20
  9
$LIMMIN
 10
0.0
 20
0.0
  9
$LIMMAX
 10
12.0
 20
9.0
  9
$ORTHOMODE
 70
     0
  9
$REGENMODE
 70
     1
  9
$FILLMODE
 70
     1
  9
$QTEXTMODE
 70
     0
  9
$MIRRTEXT
 70
     1
  9
$LTSCALE
 40
1.0
  9
$ATTMODE
 70
     1
  9
$TEXTSIZE
 40
0.2
  9
$TRACEWID
 40
0.05
  9
$TEXTSTYLE
  7
Standard
  9
$CLAYER
  8
0
  9
$CELTYPE
  6
ByLayer
  9
$CECOLOR
 62
   256
  9
$CELTSCALE
 40
1.0
  9
$DISPSILH
 70
     0
  9
$DIMSCALE
 40
1.0
  9
$DIMASZ
 40
0.18
  9
$DIMEXO
 40
0.0625
  9
$DIMDLI
 40
0.38
  9
$DIMRND
 40
0.0
  9
$DIMDLE
 40
0.0
  9
$DIMEXE
 40
0.18
  9
$DIMTP
 40
0.0
  9
$DIMTM
 40
0.0
  9
$DIMTXT
 40
0.18
  9
$DIMCEN
 40
0.09
  9
$DIMTSZ
 40
0.0
  9
$DIMTOL
 70
     0
  9
$DIMLIM
 70
     0
  9
$DIMTIH
 70
     1
  9
$DIMTOH
 70
     1
  9
$DIMSE1
 70
     0
  9
$DIMSE2
 70
     0
  9
$DIMTAD
 70
     0
  9
$DIMZIN
 70
     0
  9
$DIMBLK
  1

  9
$DIMASO
 70
     1
  9
$DIMSHO
 70
     1
  9
$DIMPOST
  1

  9
$DIMAPOST
  1

  9
$DIMALT
 70
     0
  9
$DIMALTD
 70
     2
  9
$DIMALTF
 40
25.4
  9
$DIMLFAC
 40
1.0
  9
$DIMTOFL
 70
     0
  9
$DIMTVP
 40
0.0
  9
$DIMTIX
 70
     0
  9
$DIMSOXD
 70
     0
  9
$DIMSAH
 70
     0
  9
$DIMBLK1
  1

  9
$DIMBLK2
  1

  9
$DIMSTYLE
  2
Standard
  9
$DIMCLRD
 70
     0
  9
$DIMCLRE
 70
     0
  9
$DIMCLRT
 70
     0
  9
$DIMTFAC
 40
1.0
  9
$DIMGAP
 40
0.09
  9
$DIMJUST
 70
     0
  9
$DIMSD1
 70
     0
  9
$DIMSD2
 70
     0
  9
$DIMTOLJ
 70
     1
  9
$DIMTZIN
 70
     0
  9
$DIMALTZ
 70
     0
  9
$DIMALTTZ
 70
     0
  9
$DIMUPT
 70
     0
  9
$DIMDEC
 70
     4
  9
$DIMTDEC
 70
     4
  9
$DIMALTU
 70
     2
  9
$DIMALTTD
 70
     2
  9
$DIMTXSTY
  7
Standard
  9
$DIMAUNIT
 70
     0
  9
$DIMADEC
 70
     0
  9
$DIMALTRND
 40
0.0
  9
$DIMAZIN
 70
     0
  9
$DIMDSEP
 70
    46
  9
$DIMATFIT
 70
     3
  9
$DIMFRAC
 70
     0
  9
$DIMLDRBLK
  1

  9
$DIMLUNIT
 70
     2
  9
$DIMLWD
 70
    -2
  9
$DIMLWE
 70
    -2
  9
$DIMTMOVE
 70
     0
  9
$DIMFXL
 40
1.0
  9
$DIMFXLON
 70
     0
  9
$DIMJOGANG
 40
0.7853981633974483
  9
$DIMTFILL
 70
     0
  9
$DIMTFILLCLR
 70
     0
  9
$DIMARCSYM
 70
     0
  9
$DIMLTYPE
  6

  9
$DIMLTEX1
  6

  9
$DIMLTEX2
  6

  9
$DIMTXTDIRECTION
 70
     0
  9
$LUNITS
 70
     2
  9
$LUPREC
 70
     4
  9
$SKETCHINC
 40
0.1
  9
$FILLETRAD
 40
0.5
  9
$AUNITS
 70
     0
  9
$AUPREC
 70
     0
  9
$MENU
  1
.
  9
$ELEVATION
 40
0.0
  9
$PELEVATION
 40
0.0
  9
$THICKNESS
 40
0.0
  9
$LIMCHECK
 70
     0
  9
$CHAMFERA
 40
0.5
  9
$CHAMFERB
 40
0.5
  9
$CHAMFERC
 40
1.0
  9
$CHAMFERD
 40
0.0
  9
$SKPOLY
 70
     0
  9
$TDCREATE
 40
2458810.657149352
  9
$TDUCREATE
 40
2458810.615482685
  9
$TDUPDATE
 40
2458810.657149398
  9
$TDUUPDATE
 40
2458810.615482731
  9
$TDINDWG
 40
0.0000000116
  9
$TDUSRTIMER
 40
0.0000000116
  9
$USRTIMER
 70
     1
  9
$ANGBASE
 50
0.0
  9
$ANGDIR
 70
     0
  9
$PDMODE
 70
     0
  9
$PDSIZE
 40
0.0
  9
$PLINEWID
 40
0.0
  9
$SPLFRAME
 70
     0
  9
$SPLINETYPE
 70
     6
  9
$SPLINESEGS
 70
     8
  9
$HANDSEED
  5
B6
  9
$SURFTAB1
 70
     6
  9
$SURFTAB2
 70
     6
  9
$SURFTYPE
 70
     6
  9
$SURFU
 70
     6
  9
$SURFV
 70
     6
  9
$UCSBASE
  2

  9
$UCSNAME
  2

  9
$UCSORG
 10
0.0
 20
0.0
 30
0.0
  9
$UCSXDIR
 10
1.0
 20
0.0
 30
0.0
  9
$UCSYDIR
 10
0.0
 20
1.0
 30
0.0
  9
$UCSORTHOREF
  2

  9
$UCSORTHOVIEW
 70
     0
  9
$UCSORGTOP
 10
0.0
 20
0.0
 30
0.0
  9
$UCSORGBOTTOM
 10
0.0
 20
0.0
 30
0.0
  9
$UCSORGLEFT
 10
0.0
 20
0.0
 30
0.0
  9
$UCSORGRIGHT
 10
0.0
 20
0.0
 30
0.0
  9
$UCSORGFRONT
 10
0.0
 20
0.0
 30
0.0
  9
$UCSORGBACK
 10
0.0
 20
0.0
 30
0.0
  9
$PUCSBASE
  2

  9
$PUCSNAME
  2

  9
$PUCSORG
 10
0.0
 20
0.0
 30
0.0
  9
$PUCSXDIR
 10
1.0
 20
0.0
 30
0.0
  9
$PUCSYDIR
 10
0.0
 20
1.0
 30
0.0
  9
$PUCSORTHOREF
  2

  9
$PUCSORTHOVIEW
 70
     0
  9
$PUCSORGTOP
 10
0.0
 20
0.0
 30
0.0
  9
$PUCSORGBOTTOM
 10
0.0
 20
0.0
 30
0.0
  9
$PUCSORGLEFT
 10
0.0
 20
0.0
 30
0.0
  9
$PUCSORGRIGHT
 10
0.0
 20
0.0
 30
0.0
  9
$PUCSORGFRONT
 10
0.0
 20
0.0
 30
0.0
  9
$PUCSORGBACK
 10
0.0
 20
0.0
 30
0.0
  9
$USERI1
 70
     0
  9
$USERI2
 70
     0
  9
$USERI3
 70
     0
  9
$USERI4
 70
     0
  9
$USERI5
 70
     0
  9
$USERR1
 40
0.0
  9
$USERR2
 40
0.0
  9
$USERR3
 40
0.0
  9
$USERR4
 40
0.0
  9
$USERR5
 40
0.0
  9
$WORLDVIEW
 70
     1
  9
$SHADEDGE
 70
     3
  9
$SHADEDIF
 70
    70
  9
$TILEMODE
 70
     1
  9
$MAXACTVP
 70
    64
  9
$PINSBASE
 10
0.0
 20
0.0
 30
0.0
  9
$PLIMCHECK
 70
     0
  9
$PEXTMIN
 10
1.000000000000000E+20
 20
1.000000000000000E+20
 30
1.000000000000000E+20
  9
$PEXTMAX
 10
-1.000000000000000E+20
 20
-1.000000000000000E+20
 30
-1.000000000000000E+20
  9
$PLIMMIN
 10
0.0
 20
0.0
  9
$PLIMMAX
 10
12.0
 20
9.0
  9
$UNITMODE
 70
     0
  9
$VISRETAIN
 70
     1
  9
$PLINEGEN
 70
     0
  9
$PSLTSCALE
 70
     1
  9
$TREEDEPTH
 70
  3020
  9
$CMLSTYLE
  2
Standard
  9
$CMLJUST
 70
     0
  9
$CMLSCALE
 40
1.0
  9
$PROXYGRAPHICS
 70
     1
  9
$MEASUREMENT
 70
     0
  9
$CELWEIGHT
370
    -1
  9
$ENDCAPS
280
     0
  9
$JOINSTYLE
280
     0
  9
$LWDISPLAY
290
     1
  9
$INSUNITS
 70
     4
  9
$HYPERLINKBASE
  1

  9
$STYLESHEET
  1

  9
$XEDIT
290
     1
  9
$CEPSNTYPE
380
     0
  9
$PSTYLEMODE
290
     1
  9
$FINGERPRINTGUID
  2
{1C07855F-0EF6-4C4B-A19A-995BB19EA418}
  9
$VERSIONGUID
  2
{FAEB1C32-E019-11D5-929B-00C0DF256EC4}
  9
$EXTNAMES
290
     1
  9
$PSVPSCALE
 40
0.0
  9
$OLESTARTUP
290
     0
  9
$SORTENTS
280
   127
  9
$INDEXCTL
280
     0
  9
$HIDETEXT
280
     1
  9
$XCLIPFRAME
280
     2
  9
$HALOGAP
280
     0
  9
$OBSCOLOR
 70
   257
  9
$OBSLTYPE
280
     0
  9
$INTERSECTIONDISPLAY
280
     0
  9
$INTERSECTIONCOLOR
 70
   257
  9
$DIMASSOC
280
     2
  9
$PROJECTNAME
  1

  9
$CAMERADISPLAY
290
     0
  9
$LENSLENGTH
 40
50.0
  9
$CAMERAHEIGHT
 40
0.0
  9
$STEPSPERSEC
 40
2.0
  9
$STEPSIZE
 40
6.0
  9
$3DDWFPREC
 40
2.0
  9
$PSOLWIDTH
 40
0.25
  9
$PSOLHEIGHT
 40
4.0
  9
$LOFTANG1
 40
1.570796326794897
  9
$LOFTANG2
 40
1.570796326794897
  9
$LOFTMAG1
 40
0.0
  9
$LOFTMAG2
 40
0.0
  9
$LOFTPARAM
 70
     7
  9
$LOFTNORMALS
280
     1
  9
$LATITUDE
 40
37.795
  9
$LONGITUDE
 40
-122.394
  9
$NORTHDIRECTION
 40
0.0
  9
$TIMEZONE
 70
 -8000
  9
$LIGHTGLYPHDISPLAY
280
     1
  9
$TILEMODELIGHTSYNCH
280
     1
  9
$CMATERIAL
347
3C
  9
$SOLIDHIST
280
     1
  9
$SHOWHIST
280
     1
  9
$DWFFRAME
280
     2
  9
$DGNFRAME
280
     2
  9
$REALWORLDSCALE
290
     1
  9
$INTERFERECOLOR
 62
   256
  9
$CSHADOW
280
     0
  9
$SHADOWPLANELOCATION
 40
0.0
  0
ENDSEC
  0
SECTION
  2
CLASSES
  0
CLASS
  1
ACDBDICTIONARYWDFLT
  2
AcDbDictionaryWithDefault
  3
ObjectDBX Classes
 90
        0
 91
        4
280
     0
281
     0
  0
CLASS
  1
VISUALSTYLE
  2
AcDbVisualStyle
  3
ObjectDBX Classes
 90
     4095
 91
        4
280
     0
281
     0
  0
CLASS
  1
MATERIAL
  2
AcDbMaterial
  3
ObjectDBX Classes
 90
     1153
 91
        4
280
     0
281
     0
  0
CLASS
  1
SUN
  2
AcDbSun
  3
SCENEOE
 90
     1024
 91
        4
280
     0
281
     0
  0
ENDSEC
  0
SECTION
  2
TABLES
  0
TABLE
  2
VPORT
  5
8
330
0
100
AcDbSymbolTable
 70
     1
  0
VPORT
  5
29
330
8
100
AcDbSymbolTableRecord
100
AcDbViewportTableRecord
  2
*Active
 70
     0
 10
0.0
 20
0.0
 11
1.0
 21
1.0
 12
0.0
 22
0.0
 13
0.0
 23
0.0
 14
0.5
 24
0.5
 15
0.5
 25
0.5
 16
0.0
 26
0.0
 36
1.0
 17
590.1899774983266
 27
417.2099913507756
 37
0.0
 40
766.8599826564524
 41
1.395587174572302
 42
50.0
 43
0.0
 44
0.0
 50
0.0
 51
0.0
 71
     0
 72
   100
 73
     1
 74
     3
 75
     0
 76
     0
 77
     0
 78
     0
281
     0
 65
     1
110
0.0
120
0.0
130
0.0
111
1.0
121
0.0
131
0.0
112
0.0
122
1.0
132
0.0
 79
     0
146
0.0
 60
     3
 61
     5
292
     1
282
     1
141
0.0
142
0.0
 63
   250
361
3F
  0
ENDTAB
  0
TABLE
  2
LTYPE
  5
5
330
0
100
AcDbSymbolTable
 70
     1
  0
LTYPE
  5
14
330
5
100
AcDbSymbolTableRecord
100
AcDbLinetypeTableRecord
  2
ByBlock
 70
     0
  3

 72
    65
 73
     0
 40
0.0
  0
LTYPE
  5
15
330
5
100
AcDbSymbolTableRecord
100
AcDbLinetypeTableRecord
  2
ByLayer
 70
     0
  3

 72
    65
 73
     0
 40
0.0
  0
LTYPE
  5
16
330
5
100
AcDbSymbolTableRecord
100
AcDbLinetypeTableRecord
  2
Continuous
 70
     0
  3
Solid line
 72
    65
 73
     0
 40
0.0
  0
ENDTAB
  0
TABLE
  2
LAYER
  5
2
330
0
100
AcDbSymbolTable
 70
     2
  0
LAYER
  5
10
330
2
100
AcDbSymbolTableRecord
100
AcDbLayerTableRecord
  2
0
 70
     0
 62
     7
  6
Continuous
370
    -3
390
F
347
3E
  0
LAYER
  5
40
330
2
100
AcDbSymbolTableRecord
100
AcDbLayerTableRecord
  2
Layer 1
 70
     0
 62
     7
  6
Continuous
370
    -3
390
F
347
3E
  0
ENDTAB
  0
TABLE
  2
STYLE
  5
3
330
0
100
AcDbSymbolTable
 70
     1
  0
STYLE
  5
11
330
3
100
AcDbSymbolTableRecord
100
AcDbTextStyleTableRecord
  2
Standard
 70
     0
 40
0.0
 41
1.0
 50
0.0
 71
     0
 42
0.2
  3
txt
  4

  0
ENDTAB
  0
TABLE
  2
VIEW
  5
6
330
0
100
AcDbSymbolTable
 70
     0
  0
ENDTAB
  0
TABLE
  2
UCS
  5
7
330
0
100
AcDbSymbolTable
 70
     0
  0
ENDTAB
  0
TABLE
  2
APPID
  5
9
330
0
100
AcDbSymbolTable
 70
     1
  0
APPID
  5
12
330
9
100
AcDbSymbolTableRecord
100
AcDbRegAppTableRecord
  2
ACAD
 70
     0
  0
ENDTAB
  0
TABLE
  2
DIMSTYLE
  5
A
330
0
100
AcDbSymbolTable
 70
     1
100
AcDbDimStyleTable
  0
DIMSTYLE
105
27
330
A
100
AcDbSymbolTableRecord
100
AcDbDimStyleTableRecord
  2
Standard
 70
     0
178
     0
340
11
  0
ENDTAB
  0
TABLE
  2
BLOCK_RECORD
  5
1
330
0
100
AcDbSymbolTable
 70
     2
  0
BLOCK_RECORD
  5
1F
330
1
100
AcDbSymbolTableRecord
100
AcDbBlockTableRecord
  2
*Model_Space
340
22
 70
     0
280
     1
281
     0
  0
BLOCK_RECORD
  5
1B
330
1
100
AcDbSymbolTableRecord
100
AcDbBlockTableRecord
  2
*Paper_Space
340
1E
 70
     0
280
     1
281
     0
  0
BLOCK_RECORD
  5
23
330
1
100
AcDbSymbolTableRecord
100
AcDbBlockTableRecord
  2
*Paper_Space0
340
26
 70
     0
280
     1
281
     0
  0
BLOCK_RECORD
  5
41
330
1
100
AcDbSymbolTableRecord
100
AcDbBlockTableRecord
  2
block 2
340
0
102
{BLKREFS
331
42
102
}
 70
     0
280
     1
281
     0
  0
ENDTAB
  0
ENDSEC
  0
SECTION
  2
BLOCKS
  0
BLOCK
  5
20
330
1F
100
AcDbEntity
  8
0
100
AcDbBlockBegin
  2
*Model_Space
 70
     0
 10
0.0
 20
0.0
 30
0.0
  3
*Model_Space
  1

  0
ENDBLK
  5
21
330
1F
100
AcDbEntity
  8
0
100
AcDbBlockEnd
  0
BLOCK
  5
1C
330
1B
100
AcDbEntity
 67
     1
  8
0
100
AcDbBlockBegin
  2
*Paper_Space
 70
     0
 10
0.0
 20
0.0
 30
0.0
  3
*Paper_Space
  1

  0
ENDBLK
  5
1D
330
1B
100
AcDbEntity
 67
     1
  8
0
100
AcDbBlockEnd
  0
BLOCK
  5
24
330
23
100
AcDbEntity
  8
0
100
AcDbBlockBegin
  2
*Paper_Space0
 70
     0
 10
0.0
 20
0.0
 30
0.0
  3
*Paper_Space0
  1

  0
ENDBLK
  5
25
330
23
100
AcDbEntity
  8
0
100
AcDbBlockEnd
  0
BLOCK
  5
43
330
41
100
AcDbEntity
  8
0
100
AcDbBlockBegin
  2
block 2
 70
     0
 10
0.0
 20
0.0
 30
0.0
  3
block 2
  1

  0
SPLINE
  5
45
330
41
100
AcDbEntity
  8
Layer 1
 62
     7
420
 16777215
370
    50
100
AcDbSpline
210
0.0
220
0.0
230
1.0
 70
    11
 71
     3
 72
    17
 73
    13
 74
     0
 42
0.0000000001
 43
0.0000000001
 12
1.0
 22
0.0
 32
0.0
 13
1.0
 23
0.0
 33
0.0
 40
0.0
 40
0.0
 40
0.0
 40
0.0
 40
1.0
 40
1.0
 40
1.0
 40
2.0
 40
2.0
 40
2.0
 40
3.0
 40
3.0
 40
3.0
 40
4.0
 40
4.0
 40
4.0
 40
4.0
 10
402.7200011200231
 20
241.8899993291759
 30
0.0
 10
402.7200011200231
 20
238.4603118300334
 30
0.0
 10
405.5003050744062
 20
235.6799926168613
 30
0.0
 10
408.9299925735488
 20
235.6799926168613
 30
0.0
 10
412.3596800726913
 20
235.6799926168613
 30
0.0
 10
415.1399840270744
 20
238.4603118300334
 30
0.0
 10
415.1399840270744
 20
241.8899993291759
 30
0.0
 10
415.1399840270744
 20
245.3196715695294
 30
0.0
 10
412.3596800726913
 20
248.0999907827016
 30
0.0
 10
408.9299925735488
 20
248.0999907827016
 30
0.0
 10
405.5003050744062
 20
248.0999907827016
 30
0.0
 10
402.7200011200231
 20
245.3196715695294
 30
0.0
 10
402.7200011200231
 20
241.8899993291759
 30
0.0
  0
SPLINE
  5
46
330
41
100
AcDbEntity
  8
Layer 1
 62
     7
420
 16777215
370
    50
100
AcDbSpline
210
0.0
220
0.0
230
1.0
 70
    11
 71
     3
 72
    17
 73
    13
 74
     0
 42
0.0000000001
 43
0.0000000001
 12
1.0
 22
0.0
 32
0.0
 13
1.0
 23
0.0
 33
0.0
 40
0.0
 40
0.0
 40
0.0
 40
0.0
 40
1.0
 40
1.0
 40
1.0
 40
2.0
 40
2.0
 40
2.0
 40
3.0
 40
3.0
 40
3.0
 40
4.0
 40
4.0
 40
4.0
 40
4.0
 10
337.73999014994
 20
306.8099974818912
 30
0.0
 10
337.73999014994
 20
303.3803099827487
 30
0.0
 10
340.5202941043231
 20
300.6000060283656
 30
0.0
 10
343.9499816034656
 20
300.6000060283656
 30
0.0
 10
347.3796996201863
 20
300.6000060283656
 30
0.0
 10
350.1600035745694
 20
303.3803099827487
 30
0.0
 10
350.1600035745694
 20
306.8099974818912
 30
0.0
 10
350.1600035745694
 20
310.2396849810338
 30
0.0
 10
347.3796996201863
 20
313.0199889354168
 30
0.0
 10
343.9499816034656
 20
313.0199889354168
 30
0.0
 10
340.5202941043231
 20
313.0199889354168
 30
0.0
 10
337.73999014994
 20
310.2396849810338
 30
0.0
 10
337.73999014994
 20
306.8099974818912
 30
0.0
  0
POLYLINE
  5
47
330
41
100
AcDbEntity
  8
Layer 1
 62
     7
420
 16777215
370
    50
100
AcDb2dPolyline
 66
     1
 10
0.0
 20
0.0
 30
0.0
  0
VERTEX
  5
48
330
47
100
AcDbEntity
  8
Layer 1
 62
     7
420
 16777215
370
    50
100
AcDbVertex
100
AcDb2dVertex
 10
402.6000060028656
 20
326.5799864906206
 30
0.0
  0
VERTEX
  5
49
330
47
100
AcDbEntity
  8
Layer 1
 62
     7
420
 16777215
370
    50
100
AcDbVertex
100
AcDb2dVertex
 10
428.6399840236994
 20
300.5399779522087
 30
0.0
  0
VERTEX
  5
4A
330
47
100
AcDbEntity
  8
Layer 1
 62
     7
420
 16777215
370
    50
100
AcDbVertex
100
AcDb2dVertex
 10
399.7799986793519
 20
271.6799926078613
 30
0.0
  0
VERTEX
  5
4B
330
47
100
AcDbEntity
  8
Layer 1
 62
     7
420
 16777215
370
    50
100
AcDbVertex
100
AcDb2dVertex
 10
390.7799986816019
 20
280.6799926056112
 30
0.0
  0
VERTEX
  5
4C
330
47
100
AcDbEntity
  8
Layer 1
 62
     7
420
 16777215
370
    50
100
AcDbVertex
100
AcDb2dVertex
 10
376.73999014019
 20
266.6399840641994
 30
0.0
  0
SEQEND
  5
4D
330
47
100
AcDbEntity
  8
Layer 1
 62
     7
420
 16777215
370
    50
  0
SPLINE
  5
4E
330
41
100
AcDbEntity
  8
Layer 1
 62
     7
420
 16777215
370
    50
100
AcDbSpline
210
0.0
220
0.0
230
1.0
 70
     8
 71
     3
 72
    11
 73
     7
 74
     0
 42
0.0000000001
 43
0.0000000001
 12
1.0
 22
0.0
 32
0.0
 13
1.0
 23
0.0
 33
0.0
 40
0.0
 40
0.0
 40
0.0
 40
0.0
 40
1.0
 40
1.0
 40
1.0
 40
2.0
 40
2.0
 40
2.0
 40
2.0
 10
368.7406920464867
 20
274.6993102340596
 30
0.0
 10
366.5264281310247
 20
272.4850158010194
 30
0.0
 10
366.5264281310247
 20
268.8949889464481
 30
0.0
 10
368.7406920464867
 20
266.680694513408
 30
0.0
 10
370.9549864795269
 20
264.4664305979459
 30
0.0
 10
374.5450133340981
 20
264.4664305979459
 30
0.0
 10
376.7593077671383
 20
266.680694513408
 30
0.0
  0
POLYLINE
  5
4F
330
41
100
AcDbEntity
  8
Layer 1
 62
     7
420
 16777215
370
    50
100
AcDb2dPolyline
 66
     1
 10
0.0
 20
0.0
 30
0.0
  0
VERTEX
  5
50
330
4F
100
AcDbEntity
  8
Layer 1
 62
     7
420
 16777215
370
    50
100
AcDbVertex
100
AcDb2dVertex
 10
368.6999815972781
 20
274.6799926071113
 30
0.0
  0
VERTEX
  5
51
330
4F
100
AcDbEntity
  8
Layer 1
 62
     7
420
 16777215
370
    50
100
AcDbVertex
100
AcDb2dVertex
 10
382.73999013869
 20
288.7200011485231
 30
0.0
  0
VERTEX
  5
52
330
4F
100
AcDbEntity
  8
Layer 1
 62
     7
420
 16777215
370
    50
100
AcDbVertex
100
AcDb2dVertex
 10
373.73999014094
 20
297.7200011462731
 30
0.0
  0
VERTEX
  5
53
330
4F
100
AcDbEntity
  8
Layer 1
 62
     7
420
 16777215
370
    50
100
AcDbVertex
100
AcDb2dVertex
 10
402.6000060028656
 20
326.5799864906206
 30
0.0
  0
SEQEND
  5
54
330
4F
100
AcDbEntity
  8
Layer 1
 62
     7
420
 16777215
370
    50
  0
SPLINE
  5
55
330
41
100
AcDbEntity
  8
Layer 1
 62
   240
420
 15539236
370
    50
100
AcDbSpline
210
0.0
220
0.0
230
1.0
 70
    11
 71
     3
 72
    17
 73
    13
 74
     0
 42
0.0000000001
 43
0.0000000001
 12
1.0
 22
0.0
 32
0.0
 13
1.0
 23
0.0
 33
0.0
 40
0.0
 40
0.0
 40
0.0
 40
0.0
 40
1.0
 40
1.0
 40
1.0
 40
2.0
 40
2.0
 40
2.0
 40
3.0
 40
3.0
 40
3.0
 40
4.0
 40
4.0
 40
4.0
 40
4.0
 10
414.7200011170231
 20
324.2699889326043
 30
0.0
 10
414.7200011170231
 20
317.8579711119418
 30
0.0
 10
419.9179686450205
 20
312.6600035839444
 30
0.0
 10
426.3299864656831
 20
312.6600035839444
 30
0.0
 10
432.7420348039238
 20
312.6600035839444
 30
0.0
 10
437.9400023319212
 20
317.8579711119418
 30
0.0
 10
437.9400023319212
 20
324.2699889326043
 30
0.0
 10
437.9400023319212
 20
330.6820372708451
 30
0.0
 10
432.7420348039238
 20
335.8800047988425
 30
0.0
 10
426.3299864656831
 20
335.8800047988425
 30
0.0
 10
419.9179686450205
 20
335.8800047988425
 30
0.0
 10
414.7200011170231
 20
330.6820372708451
 30
0.0
 10
414.7200011170231
 20
324.2699889326043
 30
0.0
  0
SPLINE
  5
56
330
41
100
AcDbEntity
  8
Layer 1
 62
     7
420
 16777215
370
    50
100
AcDbSpline
210
0.0
220
0.0
230
1.0
 70
    11
 71
     3
 72
    17
 73
    13
 74
     0
 42
0.0000000001
 43
0.0000000001
 12
1.0
 22
0.0
 32
0.0
 13
1.0
 23
0.0
 33
0.0
 40
0.0
 40
0.0
 40
0.0
 40
0.0
 40
1.0
 40
1.0
 40
1.0
 40
2.0
 40
2.0
 40
2.0
 40
3.0
 40
3.0
 40
3.0
 40
4.0
 40
4.0
 40
4.0
 40
4.0
 10
830.21997049557
 20
306.8099974818912
 30
0.0
 10
830.21997049557
 20
303.3803099827487
 30
0.0
 10
833.0003049675312
 20
300.6000060283656
 30
0.0
 10
836.4299924666738
 20
300.6000060283656
 30
0.0
 10
839.8596189306601
 20
300.6000060283656
 30
0.0
 10
842.6399534026212
 20
303.3803099827487
 30
0.0
 10
842.6399534026212
 20
306.8099974818912
 30
0.0
 10
842.6399534026212
 20
310.2396849810338
 30
0.0
 10
839.8596189306601
 20
313.0199889354168
 30
0.0
 10
836.4299924666738
 20
313.0199889354168
 30
0.0
 10
833.0003049675312
 20
313.0199889354168
 30
0.0
 10
830.21997049557
 20
310.2396849810338
 30
0.0
 10
830.21997049557
 20
306.8099974818912
 30
0.0
  0
SPLINE
  5
57
330
41
100
AcDbEntity
  8
Layer 1
 62
     7
420
 16777215
370
    50
100
AcDbSpline
210
0.0
220
0.0
230
1.0
 70
    11
 71
     3
 72
    17
 73
    13
 74
     0
 42
0.0000000001
 43
0.0000000001
 12
1.0
 22
0.0
 32
0.0
 13
1.0
 23
0.0
 33
0.0
 40
0.0
 40
0.0
 40
0.0
 40
0.0
 40
1.0
 40
1.0
 40
1.0
 40
2.0
 40
2.0
 40
2.0
 40
3.0
 40
3.0
 40
3.0
 40
4.0
 40
4.0
 40
4.0
 40
4.0
 10
765.239990043065
 20
241.8899993291759
 30
0.0
 10
765.239990043065
 20
238.4603118300334
 30
0.0
 10
768.0203245150261
 20
235.6799926168613
 30
0.0
 10
771.4500120141687
 20
235.6799926168613
 30
0.0
 10
774.8796384781551
 20
235.6799926168613
 30
0.0
 10
777.6599729501162
 20
238.4603118300334
 30
0.0
 10
777.6599729501162
 20
241.8899993291759
 30
0.0
 10
777.6599729501162
 20
245.3196715695294
 30
0.0
 10
774.8796384781551
 20
248.0999907827016
 30
0.0
 10
771.4500120141687
 20
248.0999907827016
 30
0.0
 10
768.0203245150261
 20
248.0999907827016
 30
0.0
 10
765.239990043065
 20
245.3196715695294
 30
0.0
 10
765.239990043065
 20
241.8899993291759
 30
0.0
  0
POLYLINE
  5
58
330
41
100
AcDbEntity
  8
Layer 1
 62
     7
420
 16777215
370
    50
100
AcDb2dPolyline
 66
     1
 10
0.0
 20
0.0
 30
0.0
  0
VERTEX
  5
59
330
58
100
AcDbEntity
  8
Layer 1
 62
     7
420
 16777215
370
    50
100
AcDbVertex
100
AcDb2dVertex
 10
751.6799924878612
 20
300.5399779522087
 30
0.0
  0
VERTEX
  5
5A
330
58
100
AcDbEntity
  8
Layer 1
 62
     7
420
 16777215
370
    50
100
AcDbVertex
100
AcDb2dVertex
 10
777.719970508695
 20
326.5799864906206
 30
0.0
  0
VERTEX
  5
5B
330
58
100
AcDbEntity
  8
Layer 1
 62
     7
420
 16777215
370
    50
100
AcDbVertex
100
AcDb2dVertex
 10
806.5799558530425
 20
297.7200011462731
 30
0.0
  0
VERTEX
  5
5C
330
58
100
AcDbEntity
  8
Layer 1
 62
     7
420
 16777215
370
    50
100
AcDbVertex
100
AcDb2dVertex
 10
797.5799558552925
 20
288.7200011485231
 30
0.0
  0
VERTEX
  5
5D
330
58
100
AcDbEntity
  8
Layer 1
 62
     7
420
 16777215
370
    50
100
AcDbVertex
100
AcDb2dVertex
 10
811.6199949142825
 20
274.6799926071113
 30
0.0
  0
SEQEND
  5
5E
330
58
100
AcDbEntity
  8
Layer 1
 62
     7
420
 16777215
370
    50
  0
SPLINE
  5
5F
330
41
100
AcDbEntity
  8
Layer 1
 62
     7
420
 16777215
370
    50
100
AcDbSpline
210
0.0
220
0.0
230
1.0
 70
     8
 71
     3
 72
    11
 73
     7
 74
     0
 42
0.0000000001
 43
0.0000000001
 12
1.0
 22
0.0
 32
0.0
 13
1.0
 23
0.0
 33
0.0
 40
0.0
 40
0.0
 40
0.0
 40
0.0
 40
1.0
 40
1.0
 40
1.0
 40
2.0
 40
2.0
 40
2.0
 40
2.0
 10
803.6207273381573
 20
266.680694513408
 30
0.0
 10
805.8349607360412
 20
264.4664305979459
 30
0.0
 10
809.4249875906124
 20
264.4664305979459
 30
0.0
 10
811.6392820236526
 20
266.680694513408
 30
0.0
 10
813.8535764566928
 20
268.8949889464481
 30
0.0
 10
813.8535764566928
 20
272.4850158010194
 30
0.0
 10
811.6392820236526
 20
274.6993102340596
 30
0.0
  0
POLYLINE
  5
60
330
41
100
AcDbEntity
  8
Layer 1
 62
     7
420
 16777215
370
    50
100
AcDb2dPolyline
 66
     1
 10
0.0
 20
0.0
 30
0.0
  0
VERTEX
  5
61
330
60
100
AcDbEntity
  8
Layer 1
 62
     7
420
 16777215
370
    50
100
AcDbVertex
100
AcDb2dVertex
 10
803.5799558537925
 20
266.6399840641994
 30
0.0
  0
VERTEX
  5
62
330
60
100
AcDbEntity
  8
Layer 1
 62
     7
420
 16777215
370
    50
100
AcDbVertex
100
AcDb2dVertex
 10
789.5399778299587
 20
280.6799926056112
 30
0.0
  0
VERTEX
  5
63
330
60
100
AcDbEntity
  8
Layer 1
 62
     7
420
 16777215
370
    50
100
AcDbVertex
100
AcDb2dVertex
 10
780.5399778322087
 20
271.6799926078613
 30
0.0
  0
VERTEX
  5
64
330
60
100
AcDbEntity
  8
Layer 1
 62
     7
420
 16777215
370
    50
100
AcDbVertex
100
AcDb2dVertex
 10
751.6799924878612
 20
300.5399779522087
 30
0.0
  0
SEQEND
  5
65
330
60
100
AcDbEntity
  8
Layer 1
 62
     7
420
 16777215
370
    50
  0
SPLINE
  5
66
330
41
100
AcDbEntity
  8
Layer 1
 62
   240
420
 15539236
370
    50
100
AcDbSpline
210
0.0
220
0.0
230
1.0
 70
    11
 71
     3
 72
    17
 73
    13
 74
     0
 42
0.0000000001
 43
0.0000000001
 12
1.0
 22
0.0
 32
0.0
 13
1.0
 23
0.0
 33
0.0
 40
0.0
 40
0.0
 40
0.0
 40
0.0
 40
1.0
 40
1.0
 40
1.0
 40
2.0
 40
2.0
 40
2.0
 40
3.0
 40
3.0
 40
3.0
 40
4.0
 40
4.0
 40
4.0
 40
4.0
 10
742.4400022557962
 20
324.2699889326043
 30
0.0
 10
742.4400022557962
 20
317.8579711119418
 30
0.0
 10
747.6379392662155
 20
312.6600035839444
 30
0.0
 10
754.0499876044562
 20
312.6600035839444
 30
0.0
 10
760.462035942697
 20
312.6600035839444
 30
0.0
 10
765.6599729531163
 20
317.8579711119418
 30
0.0
 10
765.6599729531163
 20
324.2699889326043
 30
0.0
 10
765.6599729531163
 20
330.6820372708451
 30
0.0
 10
760.462035942697
 20
335.8800047988425
 30
0.0
 10
754.0499876044562
 20
335.8800047988425
 30
0.0
 10
747.6379392662155
 20
335.8800047988425
 30
0.0
 10
742.4400022557962
 20
330.6820372708451
 30
0.0
 10
742.4400022557962
 20
324.2699889326043
 30
0.0
  0
SPLINE
  5
67
330
41
100
AcDbEntity
  8
Layer 1
 62
     7
420
 16777215
370
    50
100
AcDbSpline
210
0.0
220
0.0
230
1.0
 70
    11
 71
     3
 72
    17
 73
    13
 74
     0
 42
0.0000000001
 43
0.0000000001
 12
1.0
 22
0.0
 32
0.0
 13
1.0
 23
0.0
 33
0.0
 40
0.0
 40
0.0
 40
0.0
 40
0.0
 40
1.0
 40
1.0
 40
1.0
 40
2.0
 40
2.0
 40
2.0
 40
3.0
 40
3.0
 40
3.0
 40
4.0
 40
4.0
 40
4.0
 40
4.0
 10
765.239990043065
 20
734.369994933595
 30
0.0
 10
765.239990043065
 20
730.9403074344524
 30
0.0
 10
768.0203245150261
 20
728.1599729624912
 30
0.0
 10
771.4500120141687
 20
728.1599729624912
 30
0.0
 10
774.8796384781551
 20
728.1599729624912
 30
0.0
 10
777.6599729501162
 20
730.9403074344524
 30
0.0
 10
777.6599729501162
 20
734.369994933595
 30
0.0
 10
777.6599729501162
 20
737.7996213975813
 30
0.0
 10
774.8796384781551
 20
740.5799558695425
 30
0.0
 10
771.4500120141687
 20
740.5799558695425
 30
0.0
 10
768.0203245150261
 20
740.5799558695425
 30
0.0
 10
765.239990043065
 20
737.7996213975813
 30
0.0
 10
765.239990043065
 20
734.369994933595
 30
0.0
  0
SPLINE
  5
68
330
41
100
AcDbEntity
  8
Layer 1
 62
     7
420
 16777215
370
    50
100
AcDbSpline
210
0.0
220
0.0
230
1.0
 70
    11
 71
     3
 72
    17
 73
    13
 74
     0
 42
0.0000000001
 43
0.0000000001
 12
1.0
 22
0.0
 32
0.0
 13
1.0
 23
0.0
 33
0.0
 40
0.0
 40
0.0
 40
0.0
 40
0.0
 40
1.0
 40
1.0
 40
1.0
 40
2.0
 40
2.0
 40
2.0
 40
3.0
 40
3.0
 40
3.0
 40
4.0
 40
4.0
 40
4.0
 40
4.0
 10
830.21997049557
 20
669.39001448109
 30
0.0
 10
830.21997049557
 20
665.9603269819474
 30
0.0
 10
833.0003049675312
 20
663.1799925099863
 30
0.0
 10
836.4299924666738
 20
663.1799925099863
 30
0.0
 10
839.8596189306601
 20
663.1799925099863
 30
0.0
 10
842.6399534026212
 20
665.9603269819474
 30
0.0
 10
842.6399534026212
 20
669.39001448109
 30
0.0
 10
842.6399534026212
 20
672.8196409450763
 30
0.0
 10
839.8596189306601
 20
675.5999754170375
 30
0.0
 10
836.4299924666738
 20
675.5999754170375
 30
0.0
 10
833.0003049675312
 20
675.5999754170375
 30
0.0
 10
830.21997049557
 20
672.8196409450763
 30
0.0
 10
830.21997049557
 20
669.39001448109
 30
0.0
  0
POLYLINE
  5
69
330
41
100
AcDbEntity
  8
Layer 1
 62
     7
420
 16777215
370
    50
100
AcDb2dPolyline
 66
     1
 10
0.0
 20
0.0
 30
0.0
  0
VERTEX
  5
6A
330
69
100
AcDbEntity
  8
Layer 1
 62
     7
420
 16777215
370
    50
100
AcDbVertex
100
AcDb2dVertex
 10
777.719970508695
 20
649.5599973962037
 30
0.0
  0
VERTEX
  5
6B
330
69
100
AcDbEntity
  8
Layer 1
 62
     7
420
 16777215
370
    50
100
AcDbVertex
100
AcDb2dVertex
 10
751.6799924878612
 20
675.6599729756163
 30
0.0
  0
VERTEX
  5
6C
330
69
100
AcDbEntity
  8
Layer 1
 62
     7
420
 16777215
370
    50
100
AcDbVertex
100
AcDb2dVertex
 10
780.5399778322087
 20
704.5199583199637
 30
0.0
  0
VERTEX
  5
6D
330
69
100
AcDbEntity
  8
Layer 1
 62
     7
420
 16777215
370
    50
100
AcDbVertex
100
AcDb2dVertex
 10
789.5399778299587
 20
695.459960763635
 30
0.0
  0
VERTEX
  5
6E
330
69
100
AcDbEntity
  8
Layer 1
 62
     7
420
 16777215
370
    50
100
AcDbVertex
100
AcDb2dVertex
 10
803.5799558537925
 20
709.499999822625
 30
0.0
  0
SEQEND
  5
6F
330
69
100
AcDbEntity
  8
Layer 1
 62
     7
420
 16777215
370
    50
  0
SPLINE
  5
70
330
41
100
AcDbEntity
  8
Layer 1
 62
     7
420
 16777215
370
    50
100
AcDbSpline
210
0.0
220
0.0
230
1.0
 70
     8
 71
     3
 72
    11
 73
     7
 74
     0
 42
0.0000000001
 43
0.0000000001
 12
1.0
 22
0.0
 32
0.0
 13
1.0
 23
0.0
 33
0.0
 40
0.0
 40
0.0
 40
0.0
 40
0.0
 40
1.0
 40
1.0
 40
1.0
 40
2.0
 40
2.0
 40
2.0
 40
2.0
 10
811.6392820236526
 20
701.5007322464998
 30
0.0
 10
813.8535764566928
 20
703.7149656443837
 30
0.0
 10
813.8535764566928
 20
707.304992498955
 30
0.0
 10
811.6392820236526
 20
709.5192869319951
 30
0.0
 10
809.4249875906124
 20
711.7335813650353
 30
0.0
 10
805.8349607360412
 20
711.7335813650353
 30
0.0
 10
803.6207273381573
 20
709.5192869319951
 30
0.0
  0
POLYLINE
  5
71
330
41
100
AcDbEntity
  8
Layer 1
 62
     7
420
 16777215
370
    50
100
AcDb2dPolyline
 66
     1
 10
0.0
 20
0.0
 30
0.0
  0
VERTEX
  5
72
330
71
100
AcDbEntity
  8
Layer 1
 62
     7
420
 16777215
370
    50
100
AcDbVertex
100
AcDb2dVertex
 10
811.6199949142825
 20
701.5199583207137
 30
0.0
  0
VERTEX
  5
73
330
71
100
AcDbEntity
  8
Layer 1
 62
     7
420
 16777215
370
    50
100
AcDbVertex
100
AcDb2dVertex
 10
797.5799558552925
 20
687.47998029688
 30
0.0
  0
VERTEX
  5
74
330
71
100
AcDbEntity
  8
Layer 1
 62
     7
420
 16777215
370
    50
100
AcDbVertex
100
AcDb2dVertex
 10
806.5799558530425
 20
678.4199827405513
 30
0.0
  0
VERTEX
  5
75
330
71
100
AcDbEntity
  8
Layer 1
 62
     7
420
 16777215
370
    50
100
AcDbVertex
100
AcDb2dVertex
 10
777.719970508695
 20
649.5599973962037
 30
0.0
  0
SEQEND
  5
76
330
71
100
AcDbEntity
  8
Layer 1
 62
     7
420
 16777215
370
    50
  0
SPLINE
  5
77
330
41
100
AcDbEntity
  8
Layer 1
 62
   240
420
 15539236
370
    50
100
AcDbSpline
210
0.0
220
0.0
230
1.0
 70
    11
 71
     3
 72
    17
 73
    13
 74
     0
 42
0.0000000001
 43
0.0000000001
 12
1.0
 22
0.0
 32
0.0
 13
1.0
 23
0.0
 33
0.0
 40
0.0
 40
0.0
 40
0.0
 40
0.0
 40
1.0
 40
1.0
 40
1.0
 40
2.0
 40
2.0
 40
2.0
 40
3.0
 40
3.0
 40
3.0
 40
4.0
 40
4.0
 40
4.0
 40
4.0
 10
742.4400022557962
 20
651.9899900713775
 30
0.0
 10
742.4400022557962
 20
645.5779417331368
 30
0.0
 10
747.6379392662155
 20
640.3800047227174
 30
0.0
 10
754.0499876044562
 20
640.3800047227174
 30
0.0
 10
760.462035942697
 20
640.3800047227174
 30
0.0
 10
765.6599729531163
 20
645.5779417331368
 30
0.0
 10
765.6599729531163
 20
651.9899900713775
 30
0.0
 10
765.6599729531163
 20
658.4020384096182
 30
0.0
 10
760.462035942697
 20
663.5999754200375
 30
0.0
 10
754.0499876044562
 20
663.5999754200375
 30
0.0
 10
747.6379392662155
 20
663.5999754200375
 30
0.0
 10
742.4400022557962
 20
658.4020384096182
 30
0.0
 10
742.4400022557962
 20
651.9899900713775
 30
0.0
  0
SPLINE
  5
78
330
41
100
AcDbEntity
  8
Layer 1
 62
     7
420
 16777215
370
    50
100
AcDbSpline
210
0.0
220
0.0
230
1.0
 70
    11
 71
     3
 72
    17
 73
    13
 74
     0
 42
0.0000000001
 43
0.0000000001
 12
1.0
 22
0.0
 32
0.0
 13
1.0
 23
0.0
 33
0.0
 40
0.0
 40
0.0
 40
0.0
 40
0.0
 40
1.0
 40
1.0
 40
1.0
 40
2.0
 40
2.0
 40
2.0
 40
3.0
 40
3.0
 40
3.0
 40
4.0
 40
4.0
 40
4.0
 40
4.0
 10
337.73999014994
 20
669.39001448109
 30
0.0
 10
337.73999014994
 20
665.9603269819474
 30
0.0
 10
340.5202941043231
 20
663.1799925099863
 30
0.0
 10
343.9499816034656
 20
663.1799925099863
 30
0.0
 10
347.3796996201863
 20
663.1799925099863
 30
0.0
 10
350.1600035745694
 20
665.9603269819474
 30
0.0
 10
350.1600035745694
 20
669.39001448109
 30
0.0
 10
350.1600035745694
 20
672.8196409450763
 30
0.0
 10
347.3796996201863
 20
675.5999754170375
 30
0.0
 10
343.9499816034656
 20
675.5999754170375
 30
0.0
 10
340.5202941043231
 20
675.5999754170375
 30
0.0
 10
337.73999014994
 20
672.8196409450763
 30
0.0
 10
337.73999014994
 20
669.39001448109
 30
0.0
  0
SPLINE
  5
79
330
41
100
AcDbEntity
  8
Layer 1
 62
     7
420
 16777215
370
    50
100
AcDbSpline
210
0.0
220
0.0
230
1.0
 70
    11
 71
     3
 72
    17
 73
    13
 74
     0
 42
0.0000000001
 43
0.0000000001
 12
1.0
 22
0.0
 32
0.0
 13
1.0
 23
0.0
 33
0.0
 40
0.0
 40
0.0
 40
0.0
 40
0.0
 40
1.0
 40
1.0
 40
1.0
 40
2.0
 40
2.0
 40
2.0
 40
3.0
 40
3.0
 40
3.0
 40
4.0
 40
4.0
 40
4.0
 40
4.0
 10
402.7200011200231
 20
734.369994933595
 30
0.0
 10
402.7200011200231
 20
730.9403074344524
 30
0.0
 10
405.5003050744062
 20
728.1599729624912
 30
0.0
 10
408.9299925735488
 20
728.1599729624912
 30
0.0
 10
412.3596800726913
 20
728.1599729624912
 30
0.0
 10
415.1399840270744
 20
730.9403074344524
 30
0.0
 10
415.1399840270744
 20
734.369994933595
 30
0.0
 10
415.1399840270744
 20
737.7996213975813
 30
0.0
 10
412.3596800726913
 20
740.5799558695425
 30
0.0
 10
408.9299925735488
 20
740.5799558695425
 30
0.0
 10
405.5003050744062
 20
740.5799558695425
 30
0.0
 10
402.7200011200231
 20
737.7996213975813
 30
0.0
 10
402.7200011200231
 20
734.369994933595
 30
0.0
  0
POLYLINE
  5
7A
330
41
100
AcDbEntity
  8
Layer 1
 62
     7
420
 16777215
370
    50
100
AcDb2dPolyline
 66
     1
 10
0.0
 20
0.0
 30
0.0
  0
VERTEX
  5
7B
330
7A
100
AcDbEntity
  8
Layer 1
 62
     7
420
 16777215
370
    50
100
AcDbVertex
100
AcDb2dVertex
 10
428.6399840236994
 20
675.6599729756163
 30
0.0
  0
VERTEX
  5
7C
330
7A
100
AcDbEntity
  8
Layer 1
 62
     7
420
 16777215
370
    50
100
AcDbVertex
100
AcDb2dVertex
 10
402.6000060028656
 20
649.5599973962037
 30
0.0
  0
VERTEX
  5
7D
330
7A
100
AcDbEntity
  8
Layer 1
 62
     7
420
 16777215
370
    50
100
AcDbVertex
100
AcDb2dVertex
 10
373.73999014094
 20
678.4199827405513
 30
0.0
  0
VERTEX
  5
7E
330
7A
100
AcDbEntity
  8
Layer 1
 62
     7
420
 16777215
370
    50
100
AcDbVertex
100
AcDb2dVertex
 10
382.73999013869
 20
687.47998029688
 30
0.0
  0
VERTEX
  5
7F
330
7A
100
AcDbEntity
  8
Layer 1
 62
     7
420
 16777215
370
    50
100
AcDbVertex
100
AcDb2dVertex
 10
368.6999815972781
 20
701.5199583207137
 30
0.0
  0
SEQEND
  5
80
330
7A
100
AcDbEntity
  8
Layer 1
 62
     7
420
 16777215
370
    50
  0
SPLINE
  5
81
330
41
100
AcDbEntity
  8
Layer 1
 62
     7
420
 16777215
370
    50
100
AcDbSpline
210
0.0
220
0.0
230
1.0
 70
     8
 71
     3
 72
    11
 73
     7
 74
     0
 42
0.0000000001
 43
0.0000000001
 12
1.0
 22
0.0
 32
0.0
 13
1.0
 23
0.0
 33
0.0
 40
0.0
 40
0.0
 40
0.0
 40
0.0
 40
1.0
 40
1.0
 40
1.0
 40
2.0
 40
2.0
 40
2.0
 40
2.0
 10
376.7593077671383
 20
709.5192869319951
 30
0.0
 10
374.5450133340981
 20
711.7335813650353
 30
0.0
 10
370.9549864795269
 20
711.7335813650353
 30
0.0
 10
368.7406920464867
 20
709.5192869319951
 30
0.0
 10
366.5264281310247
 20
707.304992498955
 30
0.0
 10
366.5264281310247
 20
703.7149656443837
 30
0.0
 10
368.7406920464867
 20
701.5007322464998
 30
0.0
  0
POLYLINE
  5
82
330
41
100
AcDbEntity
  8
Layer 1
 62
     7
420
 16777215
370
    50
100
AcDb2dPolyline
 66
     1
 10
0.0
 20
0.0
 30
0.0
  0
VERTEX
  5
83
330
82
100
AcDbEntity
  8
Layer 1
 62
     7
420
 16777215
370
    50
100
AcDbVertex
100
AcDb2dVertex
 10
376.73999014019
 20
709.499999822625
 30
0.0
  0
VERTEX
  5
84
330
82
100
AcDbEntity
  8
Layer 1
 62
     7
420
 16777215
370
    50
100
AcDbVertex
100
AcDb2dVertex
 10
390.7799986816019
 20
695.459960763635
 30
0.0
  0
VERTEX
  5
85
330
82
100
AcDbEntity
  8
Layer 1
 62
     7
420
 16777215
370
    50
100
AcDbVertex
100
AcDb2dVertex
 10
399.7799986793519
 20
704.5199583199637
 30
0.0
  0
VERTEX
  5
86
330
82
100
AcDbEntity
  8
Layer 1
 62
     7
420
 16777215
370
    50
100
AcDbVertex
100
AcDb2dVertex
 10
428.6399840236994
 20
675.6599729756163
 30
0.0
  0
SEQEND
  5
87
330
82
100
AcDbEntity
  8
Layer 1
 62
     7
420
 16777215
370
    50
  0
SPLINE
  5
88
330
41
100
AcDbEntity
  8
Layer 1
 62
   240
420
 15539236
370
    50
100
AcDbSpline
210
0.0
220
0.0
230
1.0
 70
    11
 71
     3
 72
    17
 73
    13
 74
     0
 42
0.0000000001
 43
0.0000000001
 12
1.0
 22
0.0
 32
0.0
 13
1.0
 23
0.0
 33
0.0
 40
0.0
 40
0.0
 40
0.0
 40
0.0
 40
1.0
 40
1.0
 40
1.0
 40
2.0
 40
2.0
 40
2.0
 40
3.0
 40
3.0
 40
3.0
 40
4.0
 40
4.0
 40
4.0
 40
4.0
 10
414.7200011170231
 20
651.9899900713775
 30
0.0
 10
414.7200011170231
 20
645.5779417331368
 30
0.0
 10
419.9179686450205
 20
640.3800047227174
 30
0.0
 10
426.3299864656831
 20
640.3800047227174
 30
0.0
 10
432.7420348039238
 20
640.3800047227174
 30
0.0
 10
437.9400023319212
 20
645.5779417331368
 30
0.0
 10
437.9400023319212
 20
651.9899900713775
 30
0.0
 10
437.9400023319212
 20
658.4020384096182
 30
0.0
 10
432.7420348039238
 20
663.5999754200375
 30
0.0
 10
426.3299864656831
 20
663.5999754200375
 30
0.0
 10
419.9179686450205
 20
663.5999754200375
 30
0.0
 10
414.7200011170231
 20
658.4020384096182
 30
0.0
 10
414.7200011170231
 20
651.9899900713775
 30
0.0
  0
SPLINE
  5
89
330
41
100
AcDbEntity
  8
Layer 1
 62
     7
420
 16777215
370
    50
100
AcDbSpline
210
0.0
220
0.0
230
1.0
 70
    11
 71
     3
 72
    17
 73
    13
 74
     0
 42
0.0000000001
 43
0.0000000001
 12
1.0
 22
0.0
 32
0.0
 13
1.0
 23
0.0
 33
0.0
 40
0.0
 40
0.0
 40
0.0
 40
0.0
 40
1.0
 40
1.0
 40
1.0
 40
2.0
 40
2.0
 40
2.0
 40
3.0
 40
3.0
 40
3.0
 40
4.0
 40
4.0
 40
4.0
 40
4.0
 10
648.2999876308937
 20
756.0299680727112
 30
0.0
 10
648.2999876308937
 20
752.6003416087249
 30
0.0
 10
651.0803221028549
 20
749.8200071367637
 30
0.0
 10
654.5100096019975
 20
749.8200071367637
 30
0.0
 10
657.9396360659838
 20
749.8200071367637
 30
0.0
 10
660.719970537945
 20
752.6003416087249
 30
0.0
 10
660.719970537945
 20
756.0299680727112
 30
0.0
 10
660.719970537945
 20
759.4596555718538
 30
0.0
 10
657.9396360659838
 20
762.2399900438149
 30
0.0
 10
654.5100096019975
 20
762.2399900438149
 30
0.0
 10
651.0803221028549
 20
762.2399900438149
 30
0.0
 10
648.2999876308937
 20
759.4596555718538
 30
0.0
 10
648.2999876308937
 20
756.0299680727112
 30
0.0
  0
SPLINE
  5
8A
330
41
100
AcDbEntity
  8
Layer 1
 62
     7
420
 16777215
370
    50
100
AcDbSpline
210
0.0
220
0.0
230
1.0
 70
    11
 71
     3
 72
    17
 73
    13
 74
     0
 42
0.0000000001
 43
0.0000000001
 12
1.0
 22
0.0
 32
0.0
 13
1.0
 23
0.0
 33
0.0
 40
0.0
 40
0.0
 40
0.0
 40
0.0
 40
1.0
 40
1.0
 40
1.0
 40
2.0
 40
2.0
 40
2.0
 40
3.0
 40
3.0
 40
3.0
 40
4.0
 40
4.0
 40
4.0
 40
4.0
 10
519.6599730146163
 20
756.0299680727112
 30
0.0
 10
519.6599730146163
 20
752.6003416087249
 30
0.0
 10
522.4403074865775
 20
749.8200071367637
 30
0.0
 10
525.86999498572
 20
749.8200071367637
 30
0.0
 10
529.2996824848626
 20
749.8200071367637
 30
0.0
 10
532.0800169568238
 20
752.6003416087249
 30
0.0
 10
532.0800169568238
 20
756.0299680727112
 30
0.0
 10
532.0800169568238
 20
759.4596555718538
 30
0.0
 10
529.2996824848626
 20
762.2399900438149
 30
0.0
 10
525.86999498572
 20
762.2399900438149
 30
0.0
 10
522.4403074865775
 20
762.2399900438149
 30
0.0
 10
519.6599730146163
 20
759.4596555718538
 30
0.0
 10
519.6599730146163
 20
756.0299680727112
 30
0.0
  0
SPLINE
  5
8B
330
41
100
AcDbEntity
  8
Layer 1
 62
     7
420
 16777215
370
    50
100
AcDbSpline
210
0.0
220
0.0
230
1.0
 70
     8
 71
     3
 72
     8
 73
     4
 74
     0
 42
0.0000000001
 43
0.0000000001
 12
1.0
 22
0.0
 32
0.0
 13
1.0
 23
0.0
 33
0.0
 40
0.0
 40
0.0
 40
0.0
 40
0.0
 40
1.0
 40
1.0
 40
1.0
 40
1.0
 10
1124.579955773542
 20
748.8899534260587
 30
0.0
 10
1124.579955773542
 20
777.073058887763
 30
0.0
 10
1101.733154021442
 20
799.9199827101762
 30
0.0
 10
1073.549926489425
 20
799.9199827101762
 30
0.0
  0
POLYLINE
  5
8C
330
41
100
AcDbEntity
  8
Layer 1
 62
     7
420
 16777215
370
    50
100
AcDb2dPolyline
 66
     1
 10
0.0
 20
0.0
 30
0.0
  0
VERTEX
  5
8D
330
8C
100
AcDbEntity
  8
Layer 1
 62
     7
420
 16777215
370
    50
100
AcDbVertex
100
AcDb2dVertex
 10
1073.52001926287
 20
799.9199827101762
 30
0.0
  0
VERTEX
  5
8E
330
8C
100
AcDbEntity
  8
Layer 1
 62
     7
420
 16777215
370
    50
100
AcDbVertex
100
AcDb2dVertex
 10
106.7999953956633
 20
799.9199827101762
 30
0.0
  0
SEQEND
  5
8F
330
8C
100
AcDbEntity
  8
Layer 1
 62
     7
420
 16777215
370
    50
  0
SPLINE
  5
90
330
41
100
AcDbEntity
  8
Layer 1
 62
     7
420
 16777215
370
    50
100
AcDbSpline
210
0.0
220
0.0
230
1.0
 70
     8
 71
     3
 72
     8
 73
     4
 74
     0
 42
0.0000000001
 43
0.0000000001
 12
1.0
 22
0.0
 32
0.0
 13
1.0
 23
0.0
 33
0.0
 40
0.0
 40
0.0
 40
0.0
 40
0.0
 40
1.0
 40
1.0
 40
1.0
 40
1.0
 10
106.8299941749527
 20
799.9199827101762
 30
0.0
 10
78.64690397203749
 20
799.9199827101762
 30
0.0
 10
55.79999922311055
 20
777.073058887763
 30
0.0
 10
55.79999922311055
 20
748.8899534260587
 30
0.0
  0
POLYLINE
  5
91
330
41
100
AcDbEntity
  8
Layer 1
 62
     7
420
 16777215
370
    50
100
AcDb2dPolyline
 66
     1
 10
0.0
 20
0.0
 30
0.0
  0
VERTEX
  5
92
330
91
100
AcDbEntity
  8
Layer 1
 62
     7
420
 16777215
370
    50
100
AcDbVertex
100
AcDb2dVertex
 10
55.79999922311055
 20
748.8599851643474
 30
0.0
  0
VERTEX
  5
93
330
91
100
AcDbEntity
  8
Layer 1
 62
     7
420
 16777215
370
    50
100
AcDbVertex
100
AcDb2dVertex
 10
55.79999922311055
 20
85.55999753720374
 30
0.0
  0
SEQEND
  5
94
330
91
100
AcDbEntity
  8
Layer 1
 62
     7
420
 16777215
370
    50
  0
SPLINE
  5
95
330
41
100
AcDbEntity
  8
Layer 1
 62
     7
420
 16777215
370
    50
100
AcDbSpline
210
0.0
220
0.0
230
1.0
 70
     8
 71
     3
 72
     8
 73
     4
 74
     0
 42
0.0000000001
 43
0.0000000001
 12
1.0
 22
0.0
 32
0.0
 13
1.0
 23
0.0
 33
0.0
 40
0.0
 40
0.0
 40
0.0
 40
0.0
 40
1.0
 40
1.0
 40
1.0
 40
1.0
 10
55.79999922311055
 20
85.58999631649313
 30
0.0
 10
55.79999922311055
 20
57.40690611357796
 30
0.0
 10
78.64690397203749
 20
34.55999754995375
 30
0.0
 10
106.8299941749527
 20
34.55999754995375
 30
0.0
  0
POLYLINE
  5
96
330
41
100
AcDbEntity
  8
Layer 1
 62
     7
420
 16777215
370
    50
100
AcDb2dPolyline
 66
     1
 10
0.0
 20
0.0
 30
0.0
  0
VERTEX
  5
97
330
96
100
AcDbEntity
  8
Layer 1
 62
     7
420
 16777215
370
    50
100
AcDbVertex
100
AcDb2dVertex
 10
106.7999953956633
 20
34.499999991375
 30
0.0
  0
VERTEX
  5
98
330
96
100
AcDbEntity
  8
Layer 1
 62
     7
420
 16777215
370
    50
100
AcDbVertex
100
AcDb2dVertex
 10
1073.52001926287
 20
34.499999991375
 30
0.0
  0
SEQEND
  5
99
330
96
100
AcDbEntity
  8
Layer 1
 62
     7
420
 16777215
370
    50
  0
SPLINE
  5
9A
330
41
100
AcDbEntity
  8
Layer 1
 62
     7
420
 16777215
370
    50
100
AcDbSpline
210
0.0
220
0.0
230
1.0
 70
     8
 71
     3
 72
     8
 73
     4
 74
     0
 42
0.0000000001
 43
0.0000000001
 12
1.0
 22
0.0
 32
0.0
 13
1.0
 23
0.0
 33
0.0
 40
0.0
 40
0.0
 40
0.0
 40
0.0
 40
1.0
 40
1.0
 40
1.0
 40
1.0
 10
1073.549926489425
 20
34.55999754995375
 30
0.0
 10
1101.733154021442
 20
34.55999754995375
 30
0.0
 10
1124.579955773542
 20
57.40690611357796
 30
0.0
 10
1124.579955773542
 20
85.58999631649313
 30
0.0
  0
SPLINE
  5
9B
330
41
100
AcDbEntity
  8
Layer 1
 62
     7
420
 16777215
370
    50
100
AcDbSpline
210
0.0
220
0.0
230
1.0
 70
    11
 71
     3
 72
    17
 73
    13
 74
     0
 42
0.0000000001
 43
0.0000000001
 12
1.0
 22
0.0
 32
0.0
 13
1.0
 23
0.0
 33
0.0
 40
0.0
 40
0.0
 40
0.0
 40
0.0
 40
1.0
 40
1.0
 40
1.0
 40
2.0
 40
2.0
 40
2.0
 40
3.0
 40
3.0
 40
3.0
 40
4.0
 40
4.0
 40
4.0
 40
4.0
 10
649.73999007194
 20
147.9299926387988
 30
0.0
 10
649.73999007194
 20
157.3243560397705
 30
0.0
 10
642.1243284527502
 20
164.9400024001712
 30
0.0
 10
632.7299803105675
 20
164.9400024001712
 30
0.0
 10
623.3356321683848
 20
164.9400024001712
 30
0.0
 10
615.719970549195
 20
157.3243560397705
 30
0.0
 10
615.719970549195
 20
147.9299926387988
 30
0.0
 10
615.719970549195
 20
138.535629237827
 30
0.0
 10
623.3356321683848
 20
130.9199981362153
 30
0.0
 10
632.7299803105675
 20
130.9199981362153
 30
0.0
 10
642.1243284527502
 20
130.9199981362153
 30
0.0
 10
649.73999007194
 20
138.535629237827
 30
0.0
 10
649.73999007194
 20
147.9299926387988
 30
0.0
  0
SPLINE
  5
9C
330
41
100
AcDbEntity
  8
Layer 1
 62
     7
420
 16777215
370
    50
100
AcDbSpline
210
0.0
220
0.0
230
1.0
 70
    11
 71
     3
 72
    17
 73
    13
 74
     0
 42
0.0000000001
 43
0.0000000001
 12
1.0
 22
0.0
 32
0.0
 13
1.0
 23
0.0
 33
0.0
 40
0.0
 40
0.0
 40
0.0
 40
0.0
 40
1.0
 40
1.0
 40
1.0
 40
2.0
 40
2.0
 40
2.0
 40
3.0
 40
3.0
 40
3.0
 40
4.0
 40
4.0
 40
4.0
 40
4.0
 10
802.7999875922687
 20
488.1299742432018
 30
0.0
 10
802.7999875922687
 20
605.5512693798622
 30
0.0
 10
707.6112669129409
 20
700.73999005919
 30
0.0
 10
590.1900022938587
 20
700.73999005919
 30
0.0
 10
472.7687376747766
 20
700.73999005919
 30
0.0
 10
377.5799864778706
 20
605.5512693798622
 30
0.0
 10
377.5799864778706
 20
488.1299742432018
 30
0.0
 10
377.5799864778706
 20
370.7087401416978
 30
0.0
 10
472.7687376747766
 20
275.5199889447919
 30
0.0
 10
590.1900022938587
 20
275.5199889447919
 30
0.0
 10
707.6112669129409
 20
275.5199889447919
 30
0.0
 10
802.7999875922687
 20
370.7087401416978
 30
0.0
 10
802.7999875922687
 20
488.1299742432018
 30
0.0
  0
SPLINE
  5
9D
330
41
100
AcDbEntity
  8
Layer 1
 62
     7
420
 16777215
370
    50
100
AcDbSpline
210
0.0
220
0.0
230
1.0
 70
    11
 71
     3
 72
    17
 73
    13
 74
     0
 42
0.0000000001
 43
0.0000000001
 12
1.0
 22
0.0
 32
0.0
 13
1.0
 23
0.0
 33
0.0
 40
0.0
 40
0.0
 40
0.0
 40
0.0
 40
1.0
 40
1.0
 40
1.0
 40
2.0
 40
2.0
 40
2.0
 40
3.0
 40
3.0
 40
3.0
 40
4.0
 40
4.0
 40
4.0
 40
4.0
 10
734.760009581935
 20
147.9299926387988
 30
0.0
 10
734.760009581935
 20
157.3243560397705
 30
0.0
 10
727.1443479627452
 20
164.9400024001712
 30
0.0
 10
717.7499998205625
 20
164.9400024001712
 30
0.0
 10
708.3556516783798
 20
164.9400024001712
 30
0.0
 10
700.73999005919
 20
157.3243560397705
 30
0.0
 10
700.73999005919
 20
147.9299926387988
 30
0.0
 10
700.73999005919
 20
138.535629237827
 30
0.0
 10
708.3556516783798
 20
130.9199981362153
 30
0.0
 10
717.7499998205625
 20
130.9199981362153
 30
0.0
 10
727.1443479627452
 20
130.9199981362153
 30
0.0
 10
734.760009581935
 20
138.535629237827
 30
0.0
 10
734.760009581935
 20
147.9299926387988
 30
0.0
  0
SPLINE
  5
9E
330
41
100
AcDbEntity
  8
Layer 1
 62
     7
420
 16777215
370
    50
100
AcDbSpline
210
0.0
220
0.0
230
1.0
 70
    11
 71
     3
 72
    17
 73
    13
 74
     0
 42
0.0000000001
 43
0.0000000001
 12
1.0
 22
0.0
 32
0.0
 13
1.0
 23
0.0
 33
0.0
 40
0.0
 40
0.0
 40
0.0
 40
0.0
 40
1.0
 40
1.0
 40
1.0
 40
2.0
 40
2.0
 40
2.0
 40
3.0
 40
3.0
 40
3.0
 40
4.0
 40
4.0
 40
4.0
 40
4.0
 10
564.6599730033662
 20
147.9299926387988
 30
0.0
 10
564.6599730033662
 20
157.3243560397705
 30
0.0
 10
557.0443113841765
 20
164.9400024001712
 30
0.0
 10
547.6499632419938
 20
164.9400024001712
 30
0.0
 10
538.2556761349673
 20
164.9400024001712
 30
0.0
 10
530.6400145157775
 20
157.3243560397705
 30
0.0
 10
530.6400145157775
 20
147.9299926387988
 30
0.0
 10
530.6400145157775
 20
138.535629237827
 30
0.0
 10
538.2556761349673
 20
130.9199981362153
 30
0.0
 10
547.6499632419938
 20
130.9199981362153
 30
0.0
 10
557.0443113841765
 20
130.9199981362153
 30
0.0
 10
564.6599730033662
 20
138.535629237827
 30
0.0
 10
564.6599730033662
 20
147.9299926387988
 30
0.0
  0
SPLINE
  5
9F
330
41
100
AcDbEntity
  8
Layer 1
 62
     7
420
 16777215
370
    50
100
AcDbSpline
210
0.0
220
0.0
230
1.0
 70
    11
 71
     3
 72
    17
 73
    13
 74
     0
 42
0.0000000001
 43
0.0000000001
 12
1.0
 22
0.0
 32
0.0
 13
1.0
 23
0.0
 33
0.0
 40
0.0
 40
0.0
 40
0.0
 40
0.0
 40
1.0
 40
1.0
 40
1.0
 40
2.0
 40
2.0
 40
2.0
 40
3.0
 40
3.0
 40
3.0
 40
4.0
 40
4.0
 40
4.0
 40
4.0
 10
479.6399840109494
 20
147.9299926387988
 30
0.0
 10
479.6399840109494
 20
157.3243560397705
 30
0.0
 10
472.0243529093377
 20
164.9400024001712
 30
0.0
 10
462.630004767155
 20
164.9400024001712
 30
0.0
 10
453.2356261073942
 20
164.9400024001712
 30
0.0
 10
445.6199950057825
 20
157.3243560397705
 30
0.0
 10
445.6199950057825
 20
147.9299926387988
 30
0.0
 10
445.6199950057825
 20
138.535629237827
 30
0.0
 10
453.2356261073942
 20
130.9199981362153
 30
0.0
 10
462.630004767155
 20
130.9199981362153
 30
0.0
 10
472.0243529093377
 20
130.9199981362153
 30
0.0
 10
479.6399840109494
 20
138.535629237827
 30
0.0
 10
479.6399840109494
 20
147.9299926387988
 30
0.0
  0
SPLINE
  5
A0
330
41
100
AcDbEntity
  8
Layer 1
 62
     7
420
 16777215
370
    50
100
AcDbSpline
210
0.0
220
0.0
230
1.0
 70
    11
 71
     3
 72
    17
 73
    13
 74
     0
 42
0.0000000001
 43
0.0000000001
 12
1.0
 22
0.0
 32
0.0
 13
1.0
 23
0.0
 33
0.0
 40
0.0
 40
0.0
 40
0.0
 40
0.0
 40
1.0
 40
1.0
 40
1.0
 40
2.0
 40
2.0
 40
2.0
 40
3.0
 40
3.0
 40
3.0
 40
4.0
 40
4.0
 40
4.0
 40
4.0
 10
235.8600005513865
 20
289.6499938240719
 30
0.0
 10
235.8600005513865
 20
295.1341857172321
 30
0.0
 10
231.4141845124589
 20
299.5799864973706
 30
0.0
 10
225.9299926192988
 20
299.5799864973706
 30
0.0
 10
220.4458159849276
 20
299.5799864973706
 30
0.0
 10
215.999999946
 20
295.1341857172321
 30
0.0
 10
215.999999946
 20
289.6499938240719
 30
0.0
 10
215.999999946
 20
284.1658019309116
 30
0.0
 10
220.4458159849276
 20
279.7200011507731
 30
0.0
 10
225.9299926192988
 20
279.7200011507731
 30
0.0
 10
231.4141845124589
 20
279.7200011507731
 30
0.0
 10
235.8600005513865
 20
284.1658019309116
 30
0.0
 10
235.8600005513865
 20
289.6499938240719
 30
0.0
  0
POLYLINE
  5
A1
330
41
100
AcDbEntity
  8
Layer 1
 62
     7
420
 16777215
370
    50
100
AcDb2dPolyline
 66
     1
 10
0.0
 20
0.0
 30
0.0
  0
VERTEX
  5
A2
330
A1
100
AcDbEntity
  8
Layer 1
 62
     7
420
 16777215
370
    50
100
AcDbVertex
100
AcDb2dVertex
 10
137.9999999655
 20
466.7999876762688
 30
0.0
  0
VERTEX
  5
A3
330
A1
100
AcDbEntity
  8
Layer 1
 62
     7
420
 16777215
370
    50
100
AcDbVertex
100
AcDb2dVertex
 10
313.73999015594
 20
466.7999876762688
 30
0.0
  0
VERTEX
  5
A4
330
A1
100
AcDbEntity
  8
Layer 1
 62
     7
420
 16777215
370
    50
100
AcDbVertex
100
AcDb2dVertex
 10
313.73999015594
 20
509.3399962105556
 30
0.0
  0
VERTEX
  5
A5
330
A1
100
AcDbEntity
  8
Layer 1
 62
     7
420
 16777215
370
    50
100
AcDbVertex
100
AcDb2dVertex
 10
137.9999999655
 20
509.3399962105556
 30
0.0
  0
VERTEX
  5
A6
330
A1
100
AcDbEntity
  8
Layer 1
 62
     7
420
 16777215
370
    50
100
AcDbVertex
100
AcDb2dVertex
 10
137.9999999655
 20
466.7999876762688
 30
0.0
  0
SEQEND
  5
A7
330
A1
100
AcDbEntity
  8
Layer 1
 62
     7
420
 16777215
370
    50
  0
POLYLINE
  5
A8
330
41
100
AcDbEntity
  8
Layer 1
 62
     7
420
 16777215
370
    50
100
AcDb2dPolyline
 66
     1
 10
0.0
 20
0.0
 30
0.0
  0
VERTEX
  5
A9
330
A8
100
AcDbEntity
  8
Layer 1
 62
     7
420
 16777215
370
    50
100
AcDbVertex
100
AcDb2dVertex
 10
1016.820007070014
 20
449.8199766941856
 30
0.0
  0
VERTEX
  5
AA
330
A8
100
AcDbEntity
  8
Layer 1
 62
     7
420
 16777215
370
    50
100
AcDbVertex
100
AcDb2dVertex
 10
1016.820007070014
 20
526.3800047512175
 30
0.0
  0
VERTEX
  5
AB
330
A8
100
AcDbEntity
  8
Layer 1
 62
     7
420
 16777215
370
    50
100
AcDbVertex
100
AcDb2dVertex
 10
892.0799558316675
 20
526.3800047512175
 30
0.0
  0
VERTEX
  5
AC
330
A8
100
AcDbEntity
  8
Layer 1
 62
     7
420
 16777215
370
    50
100
AcDbVertex
100
AcDb2dVertex
 10
892.0799558316675
 20
449.8199766941856
 30
0.0
  0
VERTEX
  5
AD
330
A8
100
AcDbEntity
  8
Layer 1
 62
     7
420
 16777215
370
    50
100
AcDbVertex
100
AcDb2dVertex
 10
1016.820007070014
 20
449.8199766941856
 30
0.0
  0
SEQEND
  5
AE
330
A8
100
AcDbEntity
  8
Layer 1
 62
     7
420
 16777215
370
    50
  0
SPLINE
  5
AF
330
41
100
AcDbEntity
  8
Layer 1
 62
     7
420
 16777215
370
    50
100
AcDbSpline
210
0.0
220
0.0
230
1.0
 70
    11
 71
     3
 72
    17
 73
    13
 74
     0
 42
0.0000000001
 43
0.0000000001
 12
1.0
 22
0.0
 32
0.0
 13
1.0
 23
0.0
 33
0.0
 40
0.0
 40
0.0
 40
0.0
 40
0.0
 40
1.0
 40
1.0
 40
1.0
 40
2.0
 40
2.0
 40
2.0
 40
3.0
 40
3.0
 40
3.0
 40
4.0
 40
4.0
 40
4.0
 40
4.0
 10
964.3800046417175
 20
289.6499938240719
 30
0.0
 10
964.3800046417175
 20
295.1341857172321
 30
0.0
 10
959.9342038615789
 20
299.5799864973706
 30
0.0
 10
954.4499509332625
 20
299.5799864973706
 30
0.0
 10
948.9657590401023
 20
299.5799864973706
 30
0.0
 10
944.5199582599637
 20
295.1341857172321
 30
0.0
 10
944.5199582599637
 20
289.6499938240719
 30
0.0
 10
944.5199582599637
 20
284.1658019309116
 30
0.0
 10
948.9657590401023
 20
279.7200011507731
 30
0.0
 10
954.4499509332625
 20
279.7200011507731
 30
0.0
 10
959.9342038615789
 20
279.7200011507731
 30
0.0
 10
964.3800046417175
 20
284.1658019309116
 30
0.0
 10
964.3800046417175
 20
289.6499938240719
 30
0.0
  0
POLYLINE
  5
B0
330
41
100
AcDbEntity
  8
Layer 1
 62
     7
420
 16777215
370
    50
100
AcDb2dPolyline
 66
     1
 10
0.0
 20
0.0
 30
0.0
  0
VERTEX
  5
B1
330
B0
100
AcDbEntity
  8
Layer 1
 62
     7
420
 16777215
370
    50
100
AcDbVertex
100
AcDb2dVertex
 10
1124.52001925012
 20
85.55999753720374
 30
0.0
  0
VERTEX
  5
B2
330
B0
100
AcDbEntity
  8
Layer 1
 62
     7
420
 16777215
370
    50
100
AcDbVertex
100
AcDb2dVertex
 10
1124.52001925012
 20
748.8599851643474
 30
0.0
  0
SEQEND
  5
B3
330
B0
100
AcDbEntity
  8
Layer 1
 62
     7
420
 16777215
370
    50
  0
ENDBLK
  5
44
330
41
100
AcDbEntity
  8
0
100
AcDbBlockEnd
  0
ENDSEC
  0
SECTION
  2
ENTITIES
  0
INSERT
  5
42
330
1F
100
AcDbEntity
  8
Layer 1
100
AcDbBlockReference
  2
block 2
 10
0.0
 20
0.0
 30
0.0
  0
ENDSEC
  0
SECTION
  2
OBJECTS
  0
DICTIONARY
  5
C
330
0
100
AcDbDictionary
281
     1
  3
ACAD_GROUP
350
D
  3
ACAD_LAYOUT
350
1A
  3
ACAD_MATERIAL
350
3B
  3
ACAD_MLEADERSTYLE
350
B5
  3
ACAD_MLINESTYLE
350
17
  3
ACAD_PLOTSETTINGS
350
19
  3
ACAD_PLOTSTYLENAME
350
E
  3
ACAD_TABLESTYLE
350
B4
  3
ACAD_VISUALSTYLE
350
2A
  0
SUN
  5
3F
330
29
100
AcDbSun
 90
        1
290
     0
 63
     7
421
 16777215
 40
1.0
291
     1
 91
  2455826
 92
 54000000
292
     0
 70
     2
 71
   256
280
     1
  0
DICTIONARY
  5
D
102
{ACAD_REACTORS
330
C
102
}
330
C
100
AcDbDictionary
281
     1
  0
DICTIONARY
  5
1A
102
{ACAD_REACTORS
330
C
102
}
330
C
100
AcDbDictionary
281
     1
  3
Layout1
350
1E
  3
Layout2
350
26
  3
Model
350
22
  0
DICTIONARY
  5
3B
102
{ACAD_REACTORS
330
C
102
}
330
C
100
AcDbDictionary
281
     1
  3
ByBlock
350
3D
  3
ByLayer
350
3C
  3
Global
350
3E
  0
DICTIONARY
  5
B5
102
{ACAD_REACTORS
330
C
102
}
330
C
100
AcDbDictionary
281
     1
  0
DICTIONARY
  5
17
102
{ACAD_REACTORS
330
C
102
}
330
C
100
AcDbDictionary
281
     1
  3
Standard
350
18
  0
DICTIONARY
  5
19
102
{ACAD_REACTORS
330
C
102
}
330
C
100
AcDbDictionary
281
     1
  0
ACDBDICTIONARYWDFLT
  5
E
102
{ACAD_REACTORS
330
C
102
}
330
C
100
AcDbDictionary
281
     1
  3
Normal
350
F
100
AcDbDictionaryWithDefault
340
F
  0
DICTIONARY
  5
B4
102
{ACAD_REACTORS
330
C
102
}
330
C
100
AcDbDictionary
281
     1
  0
DICTIONARY
  5
2A
102
{ACAD_REACTORS
330
C
102
}
330
C
100
AcDbDictionary
281
     1
  3
2dWireframe
350
2F
  3
3D Hidden
350
31
  3
3dWireframe
350
30
  3
Basic
350
32
  3
Brighten
350
36
  3
ColorChange
350
3A
  3
Conceptual
350
34
  3
Dim
350
35
  3
Facepattern
350
39
  3
Flat
350
2B
  3
FlatWithEdges
350
2C
  3
Gouraud
350
2D
  3
GouraudWithEdges
350
2E
  3
Linepattern
350
38
  3
Realistic
350
33
  3
Thicken
350
37
  0
LAYOUT
  5
1E
102
{ACAD_REACTORS
330
1A
102
}
330
1A
100
AcDbPlotSettings
  1

  2
none_device
  4

  6

 40
0.0
 41
0.0
 42
0.0
 43
0.0
 44
0.0
 45
0.0
 46
0.0
 47
0.0
 48
0.0
 49
0.0
140
0.0
141
0.0
142
1.0
143
1.0
 70
   688
 72
     0
 73
     0
 74
     5
  7

 75
    16
 76
     0
 77
     2
 78
   300
147
1.0
148
0.0
149
0.0
100
AcDbLayout
  1
Layout1
 70
     1
 71
     1
 10
0.0
 20
0.0
 11
12.0
 21
9.0
 12
0.0
 22
0.0
 32
0.0
 14
1.000000000000000E+20
 24
1.000000000000000E+20
 34
1.000000000000000E+20
 15
-1.000000000000000E+20
 25
-1.000000000000000E+20
 35
-1.000000000000000E+20
146
0.0
 13
0.0
 23
0.0
 33
0.0
 16
1.0
 26
0.0
 36
0.0
 17
0.0
 27
1.0
 37
0.0
 76
     0
330
1B
  0
LAYOUT
  5
26
102
{ACAD_REACTORS
330
1A
102
}
330
1A
100
AcDbPlotSettings
  1

  2
none_device
  4

  6

 40
0.0
 41
0.0
 42
0.0
 43
0.0
 44
0.0
 45
0.0
 46
0.0
 47
0.0
 48
0.0
 49
0.0
140
0.0
141
0.0
142
1.0
143
1.0
 70
   688
 72
     0
 73
     0
 74
     5
  7

 75
    16
 76
     0
 77
     2
 78
   300
147
1.0
148
0.0
149
0.0
100
AcDbLayout
  1
Layout2
 70
     1
 71
     2
 10
0.0
 20
0.0
 11
0.0
 21
0.0
 12
0.0
 22
0.0
 32
0.0
 14
0.0
 24
0.0
 34
0.0
 15
0.0
 25
0.0
 35
0.0
146
0.0
 13
0.0
 23
0.0
 33
0.0
 16
1.0
 26
0.0
 36
0.0
 17
0.0
 27
1.0
 37
0.0
 76
     0
330
23
  0
LAYOUT
  5
22
102
{ACAD_REACTORS
330
1A
102
}
330
1A
100
AcDbPlotSettings
  1

  2
none_device
  4

  6

 40
0.0
 41
0.0
 42
0.0
 43
0.0
 44
0.0
 45
0.0
 46
0.0
 47
0.0
 48
0.0
 49
0.0
140
0.0
141
0.0
142
1.0
143
1.0
 70
  1712
 72
     0
 73
     0
 74
     0
  7

 75
     0
 76
     0
 77
     2
 78
   300
147
1.0
148
0.0
149
0.0
100
AcDbLayout
  1
Model
 70
     1
 71
     0
 10
0.0
 20
0.0
 11
12.0
 21
9.0
 12
0.0
 22
0.0
 32
0.0
 14
1.000000000000000E+20
 24
1.000000000000000E+20
 34
1.000000000000000E+20
 15
-1.000000000000000E+20
 25
-1.000000000000000E+20
 35
-1.000000000000000E+20
146
0.0
 13
0.0
 23
0.0
 33
0.0
 16
1.0
 26
0.0
 36
0.0
 17
0.0
 27
1.0
 37
0.0
 76
     0
330
1F
331
29
  0
MATERIAL
  5
3D
102
{ACAD_REACTORS
330
3B
102
}
330
3B
100
AcDbMaterial
  1
ByBlock
 72
     1
 94
      127
  0
MATERIAL
  5
3C
102
{ACAD_REACTORS
330
3B
102
}
330
3B
100
AcDbMaterial
  1
ByLayer
 72
     1
 94
      127
  0
MATERIAL
  5
3E
102
{ACAD_REACTORS
330
3B
102
}
330
3B
100
AcDbMaterial
  1
Global
 72
     1
 94
      127
  0
MLINESTYLE
  5
18
102
{ACAD_REACTORS
330
17
102
}
330
17
100
AcDbMlineStyle
  2
Standard
 70
     0
  3

 62
   256
 51
90.0
 52
90.0
 71
     2
 49
0.5
 62
   256
  6
BYLAYER
 49
-0.5
 62
   256
  6
BYLAYER
  0
ACDBPLACEHOLDER
  5
F
102
{ACAD_REACTORS
330
E
102
}
330
E
  0
VISUALSTYLE
  5
2F
102
{ACAD_REACTORS
330
2A
102
}
330
2A
100
AcDbVisualStyle
  2
2dWireframe
 70
     4
177
     2
291
     0
 71
     0
176
     1
 72
     2
176
     1
 73
     0
176
     1
 90
        0
176
     1
 40
-0.6
176
     1
 41
-30.0
176
     1
 62
     5
 63
     7
421
 16777215
176
     1
 74
     1
176
     1
 91
        4
176
     1
 64
     7
176
     1
 65
   257
176
     1
 75
     1
176
     1
175
     1
176
     1
 42
1.0
176
     1
 92
        0
176
     1
 66
   257
176
     1
 43
1.0
176
     1
 76
     1
176
     1
 77
     6
176
     1
 78
     2
176
     1
 67
     7
176
     1
 79
     5
176
     1
170
     0
176
     1
171
     0
176
     1
290
     0
176
     1
 93
        1
176
     1
 44
0.0
176
     1
173
     0
176
     1
  0
VISUALSTYLE
  5
31
102
{ACAD_REACTORS
330
2A
102
}
330
2A
100
AcDbVisualStyle
  2
3D Hidden
 70
     6
177
     2
291
     0
 71
     1
176
     1
 72
     2
176
     1
 73
     2
176
     1
 90
        0
176
     1
 40
-0.6
176
     1
 41
-30.0
176
     1
 62
     5
 63
     7
421
 16777215
176
     1
 74
     2
176
     1
 91
        2
176
     1
 64
     7
176
     1
 65
   257
176
     1
 75
     2
176
     1
175
     1
176
     1
 42
40.0
176
     1
 92
        0
176
     1
 66
   257
176
     1
 43
1.0
176
     1
 76
     1
176
     1
 77
     6
176
     1
 78
     2
176
     1
 67
     7
176
     1
 79
     3
176
     1
170
     0
176
     1
171
     0
176
     1
290
     0
176
     1
 93
        1
176
     1
 44
0.0
176
     1
173
     0
176
     1
  0
VISUALSTYLE
  5
30
102
{ACAD_REACTORS
330
2A
102
}
330
2A
100
AcDbVisualStyle
  2
3dWireframe
 70
     5
177
     2
291
     0
 71
     0
176
     1
 72
     2
176
     1
 73
     0
176
     1
 90
        0
176
     1
 40
-0.6
176
     1
 41
-30.0
176
     1
 62
     5
 63
     7
421
 16777215
176
     1
 74
     1
176
     1
 91
        4
176
     1
 64
     7
176
     1
 65
   257
176
     1
 75
     1
176
     1
175
     1
176
     1
 42
1.0
176
     1
 92
        0
176
     1
 66
   257
176
     1
 43
1.0
176
     1
 76
     1
176
     1
 77
     6
176
     1
 78
     2
176
     1
 67
     7
176
     1
 79
     5
176
     1
170
     0
176
     1
171
     0
176
     1
290
     0
176
     1
 93
        1
176
     1
 44
0.0
176
     1
173
     0
176
     1
  0
VISUALSTYLE
  5
32
102
{ACAD_REACTORS
330
2A
102
}
330
2A
100
AcDbVisualStyle
  2
Basic
 70
     7
177
     2
291
     1
 71
     1
176
     1
 72
     0
176
     1
 73
     1
176
     1
 90
        0
176
     1
 40
-0.6
176
     1
 41
-30.0
176
     1
 62
     5
 63
     7
421
 16777215
176
     1
 74
     0
176
     1
 91
        4
176
     1
 64
     7
176
     1
 65
   257
176
     1
 75
     1
176
     1
175
     1
176
     1
 42
1.0
176
     1
 92
        8
176
     1
 66
     7
176
     1
 43
1.0
176
     1
 76
     1
176
     1
 77
     6
176
     1
 78
     2
176
     1
 67
     7
176
     1
 79
     5
176
     1
170
     0
176
     1
171
     0
176
     1
290
     0
176
     1
 93
        1
176
     1
 44
0.0
176
     1
173
     0
176
     1
  0
VISUALSTYLE
  5
36
102
{ACAD_REACTORS
330
2A
102
}
330
2A
100
AcDbVisualStyle
  2
Brighten
 70
    12
177
     2
291
     1
 71
     2
176
     1
 72
     2
176
     1
 73
     0
176
     1
 90
        0
176
     1
 40
-0.6
176
     1
 41
-30.0
176
     1
 62
     5
 63
     7
421
 16777215
176
     1
 74
     1
176
     1
 91
        4
176
     1
 64
     7
176
     1
 65
   257
176
     1
 75
     1
176
     1
175
     1
176
     1
 42
1.0
176
     1
 92
        8
176
     1
 66
     7
176
     1
 43
1.0
176
     1
 76
     1
176
     1
 77
     6
176
     1
 78
     2
176
     1
 67
     7
176
     1
 79
     5
176
     1
170
     0
176
     1
171
     0
176
     1
290
     0
176
     1
 93
        1
176
     1
 44
50.0
176
     1
173
     0
176
     1
  0
VISUALSTYLE
  5
3A
102
{ACAD_REACTORS
330
2A
102
}
330
2A
100
AcDbVisualStyle
  2
ColorChange
 70
    16
177
     2
291
     1
 71
     2
176
     1
 72
     2
176
     1
 73
     3
176
     1
 90
        0
176
     1
 40
-0.6
176
     1
 41
-30.0
176
     1
 62
     5
 63
     8
421
  8421504
176
     1
 74
     1
176
     1
 91
        4
176
     1
 64
     7
176
     1
 65
   257
176
     1
 75
     1
176
     1
175
     1
176
     1
 42
1.0
176
     1
 92
        8
176
     1
 66
     8
424
  8421504
176
     1
 43
1.0
176
     1
 76
     1
176
     1
 77
     6
176
     1
 78
     2
176
     1
 67
     7
176
     1
 79
     5
176
     1
170
     0
176
     1
171
     0
176
     1
290
     0
176
     1
 93
        1
176
     1
 44
0.0
176
     1
173
     0
176
     1
  0
VISUALSTYLE
  5
34
102
{ACAD_REACTORS
330
2A
102
}
330
2A
100
AcDbVisualStyle
  2
Conceptual
 70
     9
177
     2
291
     0
 71
     3
176
     1
 72
     2
176
     1
 73
     0
176
     1
 90
        0
176
     1
 40
-0.6
176
     1
 41
-30.0
176
     1
 62
     5
 63
     7
421
 16777215
176
     1
 74
     2
176
     1
 91
        2
176
     1
 64
     7
176
     1
 65
   257
176
     1
 75
     1
176
     1
175
     1
176
     1
 42
40.0
176
     1
 92
        8
176
     1
 66
     7
176
     1
 43
1.0
176
     1
 76
     1
176
     1
 77
     6
176
     1
 78
     2
176
     1
 67
     7
176
     1
 79
     3
176
     1
170
     0
176
     1
171
     0
176
     1
290
     0
176
     1
 93
        1
176
     1
 44
0.0
176
     1
173
     0
176
     1
  0
VISUALSTYLE
  5
35
102
{ACAD_REACTORS
330
2A
102
}
330
2A
100
AcDbVisualStyle
  2
Dim
 70
    11
177
     2
291
     1
 71
     2
176
     1
 72
     2
176
     1
 73
     0
176
     1
 90
        0
176
     1
 40
-0.6
176
     1
 41
-30.0
176
     1
 62
     5
 63
     7
421
 16777215
176
     1
 74
     1
176
     1
 91
        4
176
     1
 64
     7
176
     1
 65
   257
176
     1
 75
     1
176
     1
175
     1
176
     1
 42
1.0
176
     1
 92
        8
176
     1
 66
     7
176
     1
 43
1.0
176
     1
 76
     1
176
     1
 77
     6
176
     1
 78
     2
176
     1
 67
     7
176
     1
 79
     5
176
     1
170
     0
176
     1
171
     0
176
     1
290
     0
176
     1
 93
        1
176
     1
 44
-50.0
176
     1
173
     0
176
     1
  0
VISUALSTYLE
  5
39
102
{ACAD_REACTORS
330
2A
102
}
330
2A
100
AcDbVisualStyle
  2
Facepattern
 70
    15
177
     2
291
     1
 71
     2
176
     1
 72
     2
176
     1
 73
     0
176
     1
 90
        0
176
     1
 40
-0.6
176
     1
 41
-30.0
176
     1
 62
     5
 63
     7
421
 16777215
176
     1
 74
     1
176
     1
 91
        4
176
     1
 64
     7
176
     1
 65
   257
176
     1
 75
     1
176
     1
175
     1
176
     1
 42
1.0
176
     1
 92
        8
176
     1
 66
     7
176
     1
 43
1.0
176
     1
 76
     1
176
     1
 77
     6
176
     1
 78
     2
176
     1
 67
     7
176
     1
 79
     5
176
     1
170
     0
176
     1
171
     0
176
     1
290
     0
176
     1
 93
        1
176
     1
 44
0.0
176
     1
173
     0
176
     1
  0
VISUALSTYLE
  5
2B
102
{ACAD_REACTORS
330
2A
102
}
330
2A
100
AcDbVisualStyle
  2
Flat
 70
     0
177
     2
291
     1
 71
     2
176
     1
 72
     1
176
     1
 73
     1
176
     1
 90
        2
176
     1
 40
-0.6
176
     1
 41
30.0
176
     1
 62
     5
 63
     7
421
 16777215
176
     1
 74
     0
176
     1
 91
        4
176
     1
 64
     7
176
     1
 65
   257
176
     1
 75
     1
176
     1
175
     1
176
     1
 42
1.0
176
     1
 92
        8
176
     1
 66
     7
176
     1
 43
1.0
176
     1
 76
     1
176
     1
 77
     6
176
     1
 78
     2
176
     1
 67
     7
176
     1
 79
     5
176
     1
170
     0
176
     1
171
     0
176
     1
290
     0
176
     1
 93
       13
176
     1
 44
0.0
176
     1
173
     0
176
     1
  0
VISUALSTYLE
  5
2C
102
{ACAD_REACTORS
330
2A
102
}
330
2A
100
AcDbVisualStyle
  2
FlatWithEdges
 70
     1
177
     2
291
     1
 71
     2
176
     1
 72
     1
176
     1
 73
     1
176
     1
 90
        2
176
     1
 40
-0.6
176
     1
 41
30.0
176
     1
 62
     5
 63
     7
421
 16777215
176
     1
 74
     1
176
     1
 91
        4
176
     1
 64
     7
176
     1
 65
   257
176
     1
 75
     1
176
     1
175
     1
176
     1
 42
1.0
176
     1
 92
        0
176
     1
 66
   257
176
     1
 43
1.0
176
     1
 76
     1
176
     1
 77
     6
176
     1
 78
     2
176
     1
 67
     7
176
     1
 79
     5
176
     1
170
     0
176
     1
171
     0
176
     1
290
     0
176
     1
 93
       13
176
     1
 44
0.0
176
     1
173
     0
176
     1
  0
VISUALSTYLE
  5
2D
102
{ACAD_REACTORS
330
2A
102
}
330
2A
100
AcDbVisualStyle
  2
Gouraud
 70
     2
177
     2
291
     1
 71
     2
176
     1
 72
     2
176
     1
 73
     1
176
     1
 90
        2
176
     1
 40
-0.6
176
     1
 41
30.0
176
     1
 62
     5
 63
     7
421
 16777215
176
     1
 74
     0
176
     1
 91
        4
176
     1
 64
     7
176
     1
 65
   257
176
     1
 75
     1
176
     1
175
     1
176
     1
 42
1.0
176
     1
 92
        0
176
     1
 66
     7
176
     1
 43
1.0
176
     1
 76
     1
176
     1
 77
     6
176
     1
 78
     2
176
     1
 67
     7
176
     1
 79
     5
176
     1
170
     0
176
     1
171
     0
176
     1
290
     0
176
     1
 93
       13
176
     1
 44
0.0
176
     1
173
     0
176
     1
  0
VISUALSTYLE
  5
2E
102
{ACAD_REACTORS
330
2A
102
}
330
2A
100
AcDbVisualStyle
  2
GouraudWithEdges
 70
     3
177
     2
291
     1
 71
     2
176
     1
 72
     2
176
     1
 73
     1
176
     1
 90
        2
176
     1
 40
-0.6
176
     1
 41
30.0
176
     1
 62
     5
 63
     7
421
 16777215
176
     1
 74
     1
176
     1
 91
        4
176
     1
 64
     7
176
     1
 65
   257
176
     1
 75
     1
176
     1
175
     1
176
     1
 42
1.0
176
     1
 92
        0
176
     1
 66
   257
176
     1
 43
1.0
176
     1
 76
     1
176
     1
 77
     6
176
     1
 78
     2
176
     1
 67
     7
176
     1
 79
     5
176
     1
170
     0
176
     1
171
     0
176
     1
290
     0
176
     1
 93
       13
176
     1
 44
0.0
176
     1
173
     0
176
     1
  0
VISUALSTYLE
  5
38
102
{ACAD_REACTORS
330
2A
102
}
330
2A
100
AcDbVisualStyle
  2
Linepattern
 70
    14
177
     2
291
     1
 71
     2
176
     1
 72
     2
176
     1
 73
     0
176
     1
 90
        0
176
     1
 40
-0.6
176
     1
 41
-30.0
176
     1
 62
     5
 63
     7
421
 16777215
176
     1
 74
     1
176
     1
 91
        4
176
     1
 64
     7
176
     1
 65
   257
176
     1
 75
     7
176
     1
175
     7
176
     1
 42
1.0
176
     1
 92
        8
176
     1
 66
     7
176
     1
 43
1.0
176
     1
 76
     1
176
     1
 77
     6
176
     1
 78
     2
176
     1
 67
     7
176
     1
 79
     5
176
     1
170
     0
176
     1
171
     0
176
     1
290
     0
176
     1
 93
        1
176
     1
 44
0.0
176
     1
173
     0
176
     1
  0
VISUALSTYLE
  5
33
102
{ACAD_REACTORS
330
2A
102
}
330
2A
100
AcDbVisualStyle
  2
Realistic
 70
     8
177
     2
291
     0
 71
     2
176
     1
 72
     2
176
     1
 73
     0
176
     1
 90
        0
176
     1
 40
-0.6
176
     1
 41
-30.0
176
     1
 62
     5
 63
     7
421
 16777215
176
     1
 74
     1
176
     1
 91
        0
176
     1
 64
     7
176
     1
 65
   257
176
     1
 75
     1
176
     1
175
     1
176
     1
 42
1.0
176
     1
 92
        8
176
     1
 66
     8
424
  7895160
176
     1
 43
1.0
176
     1
 76
     1
176
     1
 77
     6
176
     1
 78
     2
176
     1
 67
     7
176
     1
 79
     5
176
     1
170
     0
176
     1
171
     0
176
     1
290
     0
176
     1
 93
       13
176
     1
 44
0.0
176
     1
173
     0
176
     1
  0
VISUALSTYLE
  5
37
102
{ACAD_REACTORS
330
2A
102
}
330
2A
100
AcDbVisualStyle
  2
Thicken
 70
    13
177
     2
291
     1
 71
     2
176
     1
 72
     2
176
     1
 73
     0
176
     1
 90
        0
176
     1
 40
-0.6
176
     1
 41
-30.0
176
     1
 62
     5
 63
     7
421
 16777215
176
     1
 74
     1
176
     1
 91
        4
176
     1
 64
     7
176
     1
 65
   257
176
     1
 75
     1
176
     1
175
     1
176
     1
 42
1.0
176
     1
 92
       12
176
     1
 66
     7
176
     1
 43
1.0
176
     1
 76
     1
176
     1
 77
     6
176
     1
 78
     2
176
     1
 67
     7
176
     1
 79
     5
176
     1
170
     0
176
     1
171
     0
176
     1
290
     0
176
     1
 93
        1
176
     1
 44
0.0
176
     1
173
     0
176
     1
  0
ENDSEC
  0
EOF
